Bodoni-72-Bold-Italic.ufo
<glyph name="exclam" format="2">
  <advance width="757"/>
  <unicode hex="0021"/>
  <outline>
    <contour>
      <point x="776" y="1348" type="curve" smooth="yes"/>
      <point x="756" y="1114"/>
      <point x="505" y="826"/>
      <point x="420" y="516" type="curve"/>
      <point x="416" y="516" type="line"/>
      <point x="476" y="816"/>
      <point x="410" y="1006"/>
      <point x="410" y="1258" type="curve" smooth="yes"/>
      <point x="410" y="1400"/>
      <point x="497" y="1516"/>
      <point x="615" y="1516" type="curve" smooth="yes"/>
      <point x="715" y="1516"/>
      <point x="784" y="1440"/>
    </contour>
    <contour>
      <point x="154" y="159" type="curve" smooth="yes"/>
      <point x="154" y="258"/>
      <point x="234" y="338"/>
      <point x="333" y="338" type="curve" smooth="yes"/>
      <point x="432" y="338"/>
      <point x="512" y="258"/>
      <point x="512" y="159" type="curve" smooth="yes"/>
      <point x="512" y="60"/>
      <point x="432" y="-20"/>
      <point x="333" y="-20" type="curve" smooth="yes"/>
      <point x="234" y="-20"/>
      <point x="154" y="60"/>
    </contour>
  </outline>
</glyph>
<glyph name="dollar" format="2">
  <advance width="2456"/>
  <unicode hex="0024"/>
  <outline>
    <contour>
      <point x="1558" y="3400" type="line"/>
      <point x="1571" y="3400" type="line"/>
      <point x="711" y="-328" type="line"/>
      <point x="698" y="-328" type="line"/>
    </contour>
    <contour>
      <point x="1890" y="3400" type="line"/>
      <point x="1903" y="3400" type="line"/>
      <point x="1043" y="-328" type="line"/>
      <point x="1030" y="-328" type="line"/>
    </contour>
    <contour>
      <point x="1024" y="2560" type="curve" smooth="yes"/>
      <point x="1024" y="1844"/>
      <point x="2315" y="2088"/>
      <point x="2315" y="1003" type="curve" smooth="yes"/>
      <point x="2315" y="327"/>
      <point x="1663" y="-62"/>
      <point x="1085" y="-62" type="curve" smooth="yes"/>
      <point x="527" y="-62"/>
      <point x="122" y="298"/>
      <point x="122" y="666" type="curve" smooth="yes"/>
      <point x="122" y="875"/>
      <point x="250" y="1053"/>
      <point x="471" y="1053" type="curve" smooth="yes"/>
      <point x="634" y="1053"/>
      <point x="795" y="932"/>
      <point x="795" y="731" type="curve" smooth="yes"/>
      <point x="795" y="506"/>
      <point x="630" y="394"/>
      <point x="449" y="394" type="curve" smooth="yes"/>
      <point x="285" y="394"/>
      <point x="179" y="502"/>
      <point x="146" y="586" type="curve"/>
      <point x="191" y="254"/>
      <point x="579" y="-50"/>
      <point x="1085" y="-50" type="curve" smooth="yes"/>
      <point x="1519" y="-50"/>
      <point x="1781" y="291"/>
      <point x="1781" y="614" type="curve" smooth="yes"/>
      <point x="1781" y="1412"/>
      <point x="512" y="1065"/>
      <point x="512" y="2109" type="curve" smooth="yes"/>
      <point x="512" y="2703"/>
      <point x="1130" y="3112"/>
      <point x="1646" y="3112" type="curve" smooth="yes"/>
      <point x="2088" y="3112"/>
      <point x="2498" y="2820"/>
      <point x="2498" y="2468" type="curve" smooth="yes"/>
      <point x="2498" y="2280"/>
      <point x="2378" y="2099"/>
      <point x="2157" y="2099" type="curve" smooth="yes"/>
      <point x="1994" y="2099"/>
      <point x="1827" y="2210"/>
      <point x="1827" y="2425" type="curve" smooth="yes"/>
      <point x="1827" y="2630"/>
      <point x="2013" y="2740"/>
      <point x="2173" y="2740" type="curve" smooth="yes"/>
      <point x="2343" y="2740"/>
      <point x="2433" y="2638"/>
      <point x="2468" y="2558" type="curve"/>
      <point x="2423" y="2835"/>
      <point x="2081" y="3094"/>
      <point x="1667" y="3094" type="curve" smooth="yes"/>
      <point x="1233" y="3094"/>
      <point x="1024" y="2822"/>
    </contour>
  </outline>
</glyph>
<glyph name="ampersand" format="2">
  <advance width="1677"/>
  <unicode hex="0026"/>
  <outline>
    <contour>
      <point x="833" y="929" type="line"/>
      <point x="971" y="1020"/>
      <point x="1032" y="1150"/>
      <point x="1032" y="1268" type="curve" smooth="yes"/>
      <point x="1032" y="1391"/>
      <point x="1008" y="1514"/>
      <point x="922" y="1514" type="curve" smooth="yes"/>
      <point x="802" y="1514"/>
      <point x="756" y="1366"/>
      <point x="756" y="1240" type="curve" smooth="yes"/>
      <point x="756" y="1170"/>
      <point x="780" y="1067"/>
      <point x="844" y="940" type="curve" smooth="yes"/>
      <point x="1222" y="190" type="line" smooth="yes"/>
      <point x="1263" y="106"/>
      <point x="1305" y="16"/>
      <point x="1385" y="16" type="curve" smooth="yes"/>
      <point x="1457" y="16"/>
      <point x="1528" y="60"/>
      <point x="1563" y="142" type="curve"/>
      <point x="1568" y="140" type="line"/>
      <point x="1530" y="52"/>
      <point x="1438" y="-20"/>
      <point x="1260" y="-20" type="curve" smooth="yes"/>
      <point x="1114" y="-20"/>
      <point x="988" y="26"/>
      <point x="882" y="212" type="curve" smooth="yes"/>
      <point x="508" y="940" type="line" smooth="yes"/>
      <point x="463" y="1023"/>
      <point x="446" y="1096"/>
      <point x="446" y="1166" type="curve" smooth="yes"/>
      <point x="446" y="1366"/>
      <point x="666" y="1520"/>
      <point x="938" y="1520" type="curve" smooth="yes"/>
      <point x="1112" y="1520"/>
      <point x="1320" y="1448"/>
      <point x="1320" y="1263" type="curve" smooth="yes"/>
      <point x="1320" y="1036"/>
      <point x="1007" y="986"/>
      <point x="836" y="924" type="curve"/>
    </contour>
    <contour>
      <point x="584" y="810" type="curve"/>
      <point x="585" y="804" type="line"/>
      <point x="461" y="721"/>
      <point x="360" y="561"/>
      <point x="360" y="350" type="curve" smooth="yes"/>
      <point x="360" y="169"/>
      <point x="500" y="9"/>
      <point x="688" y="9" type="curve" smooth="yes"/>
      <point x="1128" y="9"/>
      <point x="1621" y="418"/>
      <point x="1621" y="695" type="curve" smooth="yes"/>
      <point x="1621" y="724" type="line"/>
      <point x="1603" y="632"/>
      <point x="1519" y="570"/>
      <point x="1431" y="570" type="curve" smooth="yes"/>
      <point x="1331" y="570"/>
      <point x="1266" y="654"/>
      <point x="1266" y="734" type="curve" smooth="yes"/>
      <point x="1266" y="824"/>
      <point x="1346" y="898"/>
      <point x="1440" y="898" type="curve" smooth="yes"/>
      <point x="1546" y="898"/>
      <point x="1628" y="814"/>
      <point x="1628" y="702" type="curve" smooth="yes"/>
      <point x="1628" y="422"/>
      <point x="1148" y="-20"/>
      <point x="548" y="-20" type="curve" smooth="yes"/>
      <point x="272" y="-20"/>
      <point x="40" y="81"/>
      <point x="40" y="317" type="curve" smooth="yes"/>
      <point x="40" y="612"/>
      <point x="287" y="702"/>
    </contour>
  </outline>
</glyph>
<glyph name="parenleft" format="2">
  <advance width="746"/>
  <unicode hex="0028"/>
  <outline>
    <contour>
      <point x="561" y="-335" type="curve"/>
      <point x="559" y="-340" type="line"/>
      <point x="333" y="-240"/>
      <point x="167" y="24"/>
      <point x="167" y="370" type="curve" smooth="yes"/>
      <point x="167" y="956"/>
      <point x="603" y="1440"/>
      <point x="989" y="1600" type="curve"/>
      <point x="991" y="1595" type="line"/>
      <point x="683" y="1395"/>
      <point x="438" y="624"/>
      <point x="438" y="160" type="curve" smooth="yes"/>
      <point x="438" y="-94"/>
      <point x="471" y="-235"/>
    </contour>
  </outline>
</glyph>
<glyph name="comma" format="2">
  <advance width="549"/>
  <unicode hex="002C"/>
  <outline>
    <contour>
      <point x="50" y="155" type="curve" smooth="yes"/>
      <point x="50" y="251"/>
      <point x="138" y="336"/>
      <point x="244" y="336" type="curve" smooth="yes"/>
      <point x="352" y="336"/>
      <point x="441" y="261"/>
      <point x="441" y="115" type="curve" smooth="yes"/>
      <point x="441" y="-133"/>
      <point x="171" y="-312"/>
      <point x="-69" y="-312" type="curve"/>
      <point x="-69" y="-306" type="line"/>
      <point x="155" y="-306"/>
      <point x="442" y="-135"/>
      <point x="433" y="130" type="curve"/>
      <point x="420" y="48"/>
      <point x="337" y="-20"/>
      <point x="230" y="-20" type="curve" smooth="yes"/>
      <point x="114" y="-20"/>
      <point x="50" y="62"/>
    </contour>
  </outline>
</glyph>
<glyph name="zero" format="2">
  <advance width="2702"/>
  <unicode hex="0030"/>
  <outline>
    <contour>
      <point x="1892" y="3112" type="curve" smooth="yes"/>
      <point x="2457" y="3112"/>
      <point x="2798" y="2663"/>
      <point x="2798" y="2155" type="curve" smooth="yes"/>
      <point x="2798" y="971"/>
      <point x="2019" y="-40"/>
      <point x="1196" y="-40" type="curve" smooth="yes"/>
      <point x="631" y="-40"/>
      <point x="290" y="409"/>
      <point x="290" y="917" type="curve" smooth="yes"/>
      <point x="290" y="2101"/>
      <point x="1069" y="3112"/>
    </contour>
    <contour>
      <point x="1892" y="3100" type="curve" smooth="yes"/>
      <point x="1335" y="3100"/>
      <point x="897" y="1291"/>
      <point x="897" y="570" type="curve" smooth="yes"/>
      <point x="897" y="259"/>
      <point x="942" y="-28"/>
      <point x="1196" y="-28" type="curve" smooth="yes"/>
      <point x="1753" y="-28"/>
      <point x="2191" y="1822"/>
      <point x="2191" y="2502" type="curve" smooth="yes"/>
      <point x="2191" y="2813"/>
      <point x="2146" y="3100"/>
    </contour>
  </outline>
</glyph>
<glyph name="two" format="2">
  <advance width="2477"/>
  <unicode hex="0032"/>
  <outline>
    <contour>
      <point x="400" y="2195" type="curve"/>
      <point x="431" y="2348"/>
      <point x="576" y="2486"/>
      <point x="789" y="2486" type="curve" smooth="yes"/>
      <point x="975" y="2486"/>
      <point x="1126" y="2355"/>
      <point x="1126" y="2164" type="curve" smooth="yes"/>
      <point x="1126" y="1939"/>
      <point x="936" y="1790"/>
      <point x="751" y="1790" type="curve" smooth="yes"/>
      <point x="566" y="1790"/>
      <point x="381" y="1912"/>
      <point x="381" y="2166" type="curve" smooth="yes"/>
      <point x="381" y="2646"/>
      <point x="893" y="3112"/>
      <point x="1536" y="3112" type="curve" smooth="yes"/>
      <point x="1991" y="3112"/>
      <point x="2425" y="2929"/>
      <point x="2425" y="2478" type="curve" smooth="yes"/>
      <point x="2425" y="1986"/>
      <point x="1627" y="1593"/>
      <point x="1301" y="1372" type="curve" smooth="yes"/>
      <point x="266" y="614" type="line"/>
      <point x="2069" y="614" type="line"/>
      <point x="2138" y="922" type="line"/>
      <point x="2151" y="922" type="line"/>
      <point x="1942" y="0" type="line"/>
      <point x="-168" y="0" type="line"/>
      <point x="-69" y="409" type="line"/>
      <point x="1030" y="1192" type="line" smooth="yes"/>
      <point x="1470" y="1498"/>
      <point x="1765" y="1986"/>
      <point x="1765" y="2392" type="curve" smooth="yes"/>
      <point x="1765" y="2777"/>
      <point x="1622" y="3029"/>
      <point x="1282" y="3029" type="curve" smooth="yes"/>
      <point x="849" y="3029"/>
      <point x="408" y="2611"/>
    </contour>
  </outline>
</glyph>
<glyph name="three" format="2">
  <advance width="1151"/>
  <unicode hex="0033"/>
  <outline>
    <contour>
      <point x="285" y="1210" type="curve" smooth="yes"/>
      <point x="285" y="1374"/>
      <point x="478" y="1518"/>
      <point x="722" y="1518" type="curve" smooth="yes"/>
      <point x="944" y="1518"/>
      <point x="1172" y="1453"/>
      <point x="1172" y="1223" type="curve" smooth="yes"/>
      <point x="1172" y="993"/>
      <point x="928" y="811"/>
      <point x="466" y="811" type="curve"/>
      <point x="466" y="815" type="line"/>
      <point x="784" y="815"/>
      <point x="860" y="1125"/>
      <point x="860" y="1272" type="curve" smooth="yes"/>
      <point x="860" y="1430"/>
      <point x="810" y="1505"/>
      <point x="672" y="1505" type="curve" smooth="yes"/>
      <point x="516" y="1505"/>
      <point x="346" y="1408"/>
      <point x="309" y="1284" type="curve"/>
      <point x="328" y="1315"/>
      <point x="385" y="1358"/>
      <point x="459" y="1358" type="curve" smooth="yes"/>
      <point x="552" y="1358"/>
      <point x="613" y="1288"/>
      <point x="613" y="1198" type="curve" smooth="yes"/>
      <point x="613" y="1098"/>
      <point x="529" y="1036"/>
      <point x="449" y="1036" type="curve" smooth="yes"/>
      <point x="359" y="1036"/>
      <point x="285" y="1108"/>
    </contour>
    <contour>
      <point x="10" y="317" type="curve" smooth="yes"/>
      <point x="10" y="429"/>
      <point x="80" y="502"/>
      <point x="180" y="502" type="curve" smooth="yes"/>
      <point x="270" y="502"/>
      <point x="338" y="432"/>
      <point x="338" y="340" type="curve" smooth="yes"/>
      <point x="338" y="246"/>
      <point x="262" y="180"/>
      <point x="174" y="180" type="curve" smooth="yes"/>
      <point x="94" y="180"/>
      <point x="38" y="230"/>
      <point x="22" y="272" type="curve"/>
      <point x="37" y="133"/>
      <point x="184" y="-12"/>
      <point x="422" y="-12" type="curve" smooth="yes"/>
      <point x="660" y="-12"/>
      <point x="750" y="303"/>
      <point x="750" y="510" type="curve" smooth="yes"/>
      <point x="750" y="668"/>
      <point x="694" y="810"/>
      <point x="466" y="810" type="curve"/>
      <point x="466" y="814" type="line"/>
      <point x="888" y="814"/>
      <point x="1062" y="690"/>
      <point x="1062" y="460" type="curve" smooth="yes"/>
      <point x="1062" y="170"/>
      <point x="744" y="-20"/>
      <point x="442" y="-20" type="curve" smooth="yes"/>
      <point x="148" y="-20"/>
      <point x="10" y="163"/>
    </contour>
  </outline>
</glyph>
<glyph name="four" format="2">
  <advance width="1320"/>
  <unicode hex="0034"/>
  <outline>
    <contour>
      <point x="1110" y="6" type="line"/>
      <point x="1110" y="0" type="line"/>
      <point x="460" y="0" type="line"/>
      <point x="460" y="6" type="line"/>
    </contour>
    <contour>
      <point x="1301" y="1500" type="line"/>
      <point x="940" y="0" type="line"/>
      <point x="630" y="0" type="line"/>
      <point x="949" y="1392" type="line"/>
      <point x="102" y="432" type="line"/>
      <point x="1260" y="432" type="line"/>
      <point x="1260" y="428" type="line"/>
      <point x="89" y="428" type="line"/>
      <point x="1040" y="1500" type="line"/>
    </contour>
  </outline>
</glyph>
<glyph name="five" format="2">
  <advance width="2308"/>
  <unicode hex="0035"/>
  <outline>
    <contour>
      <point x="2163" y="1126" type="curve" smooth="yes"/>
      <point x="2163" y="430"/>
      <point x="1420" y="-40"/>
      <point x="802" y="-40" type="curve" smooth="yes"/>
      <point x="302" y="-40"/>
      <point x="0" y="255"/>
      <point x="0" y="590" type="curve" smooth="yes"/>
      <point x="0" y="799"/>
      <point x="152" y="946"/>
      <point x="336" y="946" type="curve" smooth="yes"/>
      <point x="500" y="946"/>
      <point x="671" y="819"/>
      <point x="671" y="614" type="curve" smooth="yes"/>
      <point x="671" y="409"/>
      <point x="516" y="287"/>
      <point x="336" y="287" type="curve" smooth="yes"/>
      <point x="173" y="287"/>
      <point x="46" y="404"/>
      <point x="22" y="488" type="curve"/>
      <point x="73" y="208"/>
      <point x="359" y="-22"/>
      <point x="762" y="-22" type="curve" smooth="yes"/>
      <point x="1290" y="-22"/>
      <point x="1508" y="762"/>
      <point x="1508" y="1228" type="curve" smooth="yes"/>
      <point x="1508" y="1573"/>
      <point x="1380" y="1835"/>
      <point x="1118" y="1835" type="curve" smooth="yes"/>
      <point x="815" y="1835"/>
      <point x="504" y="1692"/>
      <point x="364" y="1483" type="curve"/>
      <point x="352" y="1483" type="line"/>
      <point x="500" y="1717"/>
      <point x="857" y="1864"/>
      <point x="1229" y="1864" type="curve" smooth="yes"/>
      <point x="1766" y="1864"/>
      <point x="2163" y="1658"/>
    </contour>
    <contour>
      <point x="2347" y="2458" type="line"/>
      <point x="696" y="2458" type="line"/>
      <point x="360" y="1483" type="line"/>
      <point x="348" y="1483" type="line"/>
      <point x="888" y="3072" type="line"/>
      <point x="2470" y="3072" type="line"/>
      <point x="2521" y="3298" type="line"/>
      <point x="2534" y="3298" type="line"/>
    </contour>
  </outline>
</glyph>
<glyph name="six" format="2">
  <advance width="1219"/>
  <unicode hex="0036"/>
  <outline>
    <contour>
      <point x="860" y="690" type="curve" smooth="yes"/>
      <point x="860" y="848"/>
      <point x="830" y="944"/>
      <point x="747" y="944" type="curve" smooth="yes"/>
      <point x="486" y="944"/>
      <point x="403" y="459"/>
      <point x="403" y="250" type="curve"/>
      <point x="397" y="250" type="line"/>
      <point x="397" y="455"/>
      <point x="474" y="985"/>
      <point x="807" y="985" type="curve" smooth="yes"/>
      <point x="989" y="985"/>
      <point x="1180" y="880"/>
      <point x="1180" y="600" type="curve" smooth="yes"/>
      <point x="1180" y="260"/>
      <point x="850" y="-20"/>
      <point x="528" y="-20" type="curve" smooth="yes"/>
      <point x="286" y="-20"/>
      <point x="100" y="120"/>
      <point x="100" y="440" type="curve" smooth="yes"/>
      <point x="100" y="906"/>
      <point x="604" y="1520"/>
      <point x="1230" y="1520" type="curve"/>
      <point x="1230" y="1514" type="line"/>
      <point x="695" y="1514"/>
      <point x="404" y="823"/>
      <point x="404" y="299" type="curve"/>
      <point x="403" y="250" type="line"/>
      <point x="403" y="112"/>
      <point x="443" y="-14"/>
      <point x="538" y="-14" type="curve" smooth="yes"/>
      <point x="717" y="-14"/>
      <point x="860" y="462"/>
    </contour>
  </outline>
</glyph>
<glyph name="seven" format="2">
  <advance width="2279"/>
  <unicode hex="0037"/>
  <outline>
    <contour>
      <point x="582" y="352" type="curve" smooth="yes"/>
      <point x="582" y="717"/>
      <point x="1109" y="1134"/>
      <point x="1466" y="1560" type="curve" smooth="yes"/>
      <point x="1695" y="1830"/>
      <point x="1910" y="2119"/>
      <point x="2166" y="2437" type="curve"/>
      <point x="550" y="2437" type="line"/>
      <point x="482" y="2130" type="line"/>
      <point x="469" y="2130" type="line"/>
      <point x="678" y="3072" type="line"/>
      <point x="2689" y="3072" type="line"/>
      <point x="2689" y="3072"/>
      <point x="1973" y="2146"/>
      <point x="1555" y="1636" type="curve" smooth="yes"/>
      <point x="1264" y="1275"/>
      <point x="1043" y="1052"/>
      <point x="1043" y="868" type="curve" smooth="yes"/>
      <point x="1043" y="671"/>
      <point x="1339" y="625"/>
      <point x="1339" y="340" type="curve" smooth="yes"/>
      <point x="1339" y="127"/>
      <point x="1186" y="-40"/>
      <point x="944" y="-40" type="curve" smooth="yes"/>
      <point x="743" y="-40"/>
      <point x="582" y="90"/>
    </contour>
  </outline>
</glyph>
<glyph name="less" format="2">
  <advance width="1119"/>
  <unicode hex="003C"/>
  <outline>
    <contour>
      <point x="220" y="774" type="line"/>
      <point x="220" y="778" type="line"/>
      <point x="1180" y="1200" type="line"/>
      <point x="1180" y="1194" type="line"/>
    </contour>
    <contour>
      <point x="220" y="772" type="line"/>
      <point x="220" y="776" type="line"/>
      <point x="1000" y="356" type="line"/>
      <point x="1000" y="350" type="line"/>
    </contour>
  </outline>
</glyph>
<glyph name="question" format="2">
  <advance width="1169"/>
  <unicode hex="003F"/>
  <outline>
    <contour>
      <point x="588" y="705" type="curve"/>
      <point x="541" y="488" type="line"/>
      <point x="537" y="488" type="line"/>
      <point x="585" y="708" type="line"/>
      <point x="819" y="770"/>
      <point x="948" y="1034"/>
      <point x="948" y="1260" type="curve" smooth="yes"/>
      <point x="948" y="1388"/>
      <point x="910" y="1512"/>
      <point x="772" y="1512" type="curve" smooth="yes"/>
      <point x="545" y="1512"/>
      <point x="359" y="1347"/>
      <point x="339" y="1215" type="curve"/>
      <point x="358" y="1256"/>
      <point x="412" y="1300"/>
      <point x="484" y="1300" type="curve" smooth="yes"/>
      <point x="562" y="1300"/>
      <point x="638" y="1240"/>
      <point x="638" y="1150" type="curve" smooth="yes"/>
      <point x="638" y="1050"/>
      <point x="554" y="988"/>
      <point x="474" y="988" type="curve" smooth="yes"/>
      <point x="374" y="988"/>
      <point x="320" y="1060"/>
      <point x="320" y="1162" type="curve" smooth="yes"/>
      <point x="320" y="1326"/>
      <point x="528" y="1520"/>
      <point x="792" y="1520" type="curve" smooth="yes"/>
      <point x="1014" y="1520"/>
      <point x="1260" y="1430"/>
      <point x="1260" y="1190" type="curve" smooth="yes"/>
      <point x="1260" y="870"/>
      <point x="898" y="721"/>
    </contour>
    <component base="period" xOffset="298"/>
  </outline>
</glyph>
<glyph name="at" format="2">
  <advance width="2019"/>
  <unicode hex="0040"/>
  <outline>
    <contour>
      <point x="1159" y="714" type="curve" smooth="yes"/>
      <point x="1159" y="409"/>
      <point x="1018" y="140"/>
      <point x="788" y="140" type="curve" smooth="yes"/>
      <point x="620" y="140"/>
      <point x="488" y="252"/>
      <point x="488" y="460" type="curve" smooth="yes"/>
      <point x="488" y="760"/>
      <point x="707" y="1058"/>
      <point x="946" y="1058" type="curve" smooth="yes"/>
      <point x="1128" y="1058"/>
      <point x="1159" y="878"/>
    </contour>
    <contour>
      <point x="1151" y="692" type="curve" smooth="yes"/>
      <point x="1151" y="776"/>
      <point x="1148" y="986"/>
      <point x="1041" y="986" type="curve" smooth="yes"/>
      <point x="934" y="986"/>
      <point x="810" y="709"/>
      <point x="810" y="461" type="curve" smooth="yes"/>
      <point x="810" y="327"/>
      <point x="840" y="213"/>
      <point x="909" y="213" type="curve" smooth="yes"/>
      <point x="1028" y="213"/>
      <point x="1151" y="445"/>
    </contour>
    <contour>
      <point x="1110" y="420" type="curve" smooth="yes"/>
      <point x="1254" y="1040" type="line"/>
      <point x="1554" y="1040" type="line"/>
      <point x="1406" y="406" type="line" smooth="yes"/>
      <point x="1392" y="344"/>
      <point x="1331" y="168"/>
      <point x="1455" y="168" type="curve" smooth="yes"/>
      <point x="1695" y="168"/>
      <point x="1904" y="457"/>
      <point x="1904" y="802" type="curve" smooth="yes"/>
      <point x="1904" y="1164"/>
      <point x="1674" y="1574"/>
      <point x="1170" y="1574" type="curve" smooth="yes"/>
      <point x="591" y="1574"/>
      <point x="116" y="1046"/>
      <point x="116" y="422" type="curve" smooth="yes"/>
      <point x="116" y="-202"/>
      <point x="476" y="-422"/>
      <point x="838" y="-422" type="curve" smooth="yes"/>
      <point x="1162" y="-422"/>
      <point x="1398" y="-318"/>
      <point x="1564" y="-124" type="curve"/>
      <point x="1570" y="-128" type="line"/>
      <point x="1402" y="-324"/>
      <point x="1164" y="-428"/>
      <point x="838" y="-428" type="curve" smooth="yes"/>
      <point x="472" y="-428"/>
      <point x="110" y="-208"/>
      <point x="110" y="422" type="curve" smooth="yes"/>
      <point x="110" y="1048"/>
      <point x="584" y="1580"/>
      <point x="1170" y="1580" type="curve" smooth="yes"/>
      <point x="1676" y="1580"/>
      <point x="1910" y="1168"/>
      <point x="1910" y="802" type="curve" smooth="yes"/>
      <point x="1910" y="472"/>
      <point x="1724" y="136"/>
      <point x="1352" y="136" type="curve" smooth="yes"/>
      <point x="1114" y="136"/>
      <point x="1082" y="296"/>
    </contour>
  </outline>
</glyph>
<glyph name="A" format="2">
  <advance width="1544"/>
  <unicode hex="0041"/>
  <outline>
    <contour>
      <point x="-95" y="6" type="line"/>
      <point x="345" y="6" type="line"/>
      <point x="345" y="0" type="line"/>
      <point x="-95" y="0" type="line"/>
    </contour>
    <contour>
      <point x="705" y="6" type="line"/>
      <point x="1405" y="6" type="line"/>
      <point x="1405" y="0" type="line"/>
      <point x="705" y="0" type="line"/>
    </contour>
    <contour>
      <point x="376" y="492" type="line"/>
      <point x="1025" y="492" type="line"/>
      <point x="1025" y="488" type="line"/>
      <point x="376" y="488" type="line"/>
    </contour>
    <contour>
      <point x="808" y="1234" type="line"/>
      <point x="95" y="0" type="line"/>
      <point x="89" y="0" type="line"/>
      <point x="971" y="1530" type="line"/>
      <point x="1075" y="1530" type="line"/>
      <point x="1265" y="0" type="line"/>
      <point x="935" y="0" type="line"/>
    </contour>
  </outline>
</glyph>
<glyph name="B" format="2">
  <advance width="1364"/>
  <unicode hex="0042"/>
  <outline>
    <contour>
      <point x="585" y="0" type="curve" smooth="yes"/>
      <point x="-95" y="0" type="line"/>
      <point x="-95" y="6" type="line"/>
      <point x="585" y="6" type="line" smooth="yes"/>
      <point x="777" y="6"/>
      <point x="925" y="242"/>
      <point x="925" y="520" type="curve" smooth="yes"/>
      <point x="925" y="698"/>
      <point x="849" y="768"/>
      <point x="717" y="768" type="curve" smooth="yes"/>
      <point x="485" y="768" type="line"/>
      <point x="485" y="772" type="line"/>
      <point x="757" y="772" type="line" smooth="yes"/>
      <point x="1039" y="772"/>
      <point x="1265" y="690"/>
      <point x="1265" y="460" type="curve" smooth="yes"/>
      <point x="1265" y="160"/>
      <point x="937" y="0"/>
    </contour>
    <contour>
      <point x="435" y="1500" type="line"/>
      <point x="745" y="1500" type="line"/>
      <point x="395" y="0" type="line"/>
      <point x="85" y="0" type="line"/>
    </contour>
    <contour>
      <point x="725" y="768" type="curve" smooth="yes"/>
      <point x="485" y="768" type="line"/>
      <point x="485" y="772" type="line"/>
      <point x="725" y="772" type="line" smooth="yes"/>
      <point x="877" y="772"/>
      <point x="1055" y="972"/>
      <point x="1055" y="1250" type="curve" smooth="yes"/>
      <point x="1055" y="1378"/>
      <point x="1002" y="1494"/>
      <point x="870" y="1494" type="curve" smooth="yes"/>
      <point x="255" y="1494" type="line"/>
      <point x="255" y="1500" type="line"/>
      <point x="875" y="1500" type="line" smooth="yes"/>
      <point x="1217" y="1500"/>
      <point x="1375" y="1410"/>
      <point x="1375" y="1190" type="curve" smooth="yes"/>
      <point x="1375" y="930"/>
      <point x="1047" y="768"/>
    </contour>
  </outline>
</glyph>
<glyph name="C" format="2">
  <advance width="1390"/>
  <unicode hex="0043"/>
  <outline>
    <contour>
      <point x="665" y="-20" type="curve" smooth="yes"/>
      <point x="329" y="-20"/>
      <point x="105" y="184"/>
      <point x="105" y="510" type="curve" smooth="yes"/>
      <point x="105" y="1056"/>
      <point x="509" y="1520"/>
      <point x="995" y="1520" type="curve" smooth="yes"/>
      <point x="1251" y="1520"/>
      <point x="1410" y="1346"/>
      <point x="1420" y="1060" type="curve"/>
      <point x="1414" y="1060" type="line"/>
      <point x="1399" y="1372"/>
      <point x="1220" y="1504"/>
      <point x="1045" y="1504" type="curve" smooth="yes"/>
      <point x="647" y="1504"/>
      <point x="435" y="784"/>
      <point x="435" y="370" type="curve" smooth="yes"/>
      <point x="435" y="176"/>
      <point x="495" y="-6"/>
      <point x="703" y="-6" type="curve" smooth="yes"/>
      <point x="941" y="-6"/>
      <point x="1159" y="187"/>
      <point x="1289" y="440" type="curve"/>
      <point x="1295" y="440" type="line"/>
      <point x="1175" y="194"/>
      <point x="951" y="-20"/>
    </contour>
    <contour>
      <point x="1414" y="1060" type="line"/>
      <point x="1411" y="1122" type="line"/>
      <point x="1396" y="1221"/>
      <point x="1371" y="1300"/>
      <point x="1323" y="1362" type="curve"/>
      <point x="1515" y="1500" type="line"/>
      <point x="1521" y="1500" type="line"/>
      <point x="1420" y="1060" type="line"/>
    </contour>
    <contour>
      <point x="1289" y="440" type="line"/>
      <point x="1295" y="440" type="line"/>
      <point x="1185" y="0" type="line"/>
      <point x="1179" y="0" type="line"/>
      <point x="1056" y="133" type="line"/>
      <point x="1119" y="190"/>
      <point x="1188" y="261"/>
      <point x="1253" y="369" type="curve"/>
    </contour>
  </outline>
</glyph>
<glyph name="E" format="2">
  <advance width="2524"/>
  <unicode hex="0045"/>
  <outline>
    <contour>
      <point x="498" y="3072" type="line"/>
      <point x="2832" y="3072" type="line"/>
      <point x="2636" y="2232" type="line"/>
      <point x="2624" y="2232" type="line"/>
      <point x="2665" y="2670"/>
      <point x="2452" y="3060"/>
      <point x="1972" y="3060" type="curve" smooth="yes"/>
      <point x="498" y="3060" type="line"/>
    </contour>
    <contour>
      <point x="866" y="3072" type="line"/>
      <point x="1501" y="3072" type="line"/>
      <point x="788" y="0" type="line"/>
      <point x="154" y="0" type="line"/>
    </contour>
    <contour>
      <point x="1313" y="1586" type="curve" smooth="yes"/>
      <point x="1042" y="1586" type="line"/>
      <point x="1042" y="1594" type="line"/>
      <point x="1313" y="1594" type="line" smooth="yes"/>
      <point x="1547" y="1594"/>
      <point x="1831" y="1807"/>
      <point x="1954" y="2081" type="curve"/>
      <point x="1966" y="2081" type="line"/>
      <point x="1735" y="1077" type="line"/>
      <point x="1723" y="1077" type="line"/>
      <point x="1723" y="1351"/>
      <point x="1547" y="1586"/>
    </contour>
    <contour>
      <point x="2160" y="0" type="line"/>
      <point x="-194" y="0" type="line"/>
      <point x="-194" y="12" type="line"/>
      <point x="1259" y="12" type="line" smooth="yes"/>
      <point x="1821" y="12"/>
      <point x="2182" y="402"/>
      <point x="2362" y="922" type="curve"/>
      <point x="2374" y="922" type="line"/>
    </contour>
  </outline>
</glyph>
<glyph name="F" format="2">
  <advance width="2422"/>
  <unicode hex="0046"/>
  <outline>
    <contour>
      <point x="1235" y="1524" type="curve" smooth="yes"/>
      <point x="1051" y="1524" type="line"/>
      <point x="1051" y="1532" type="line"/>
      <point x="1235" y="1532" type="line" smooth="yes"/>
      <point x="1546" y="1532"/>
      <point x="1824" y="1746"/>
      <point x="1939" y="2020" type="curve"/>
      <point x="1951" y="2020" type="line"/>
      <point x="1720" y="1016" type="line"/>
      <point x="1708" y="1016" type="line"/>
      <point x="1708" y="1290"/>
      <point x="1550" y="1524"/>
    </contour>
    <contour>
      <point x="-194" y="12" type="line"/>
      <point x="1198" y="12" type="line"/>
      <point x="1198" y="0" type="line"/>
      <point x="-194" y="0" type="line"/>
    </contour>
    <contour>
      <point x="866" y="3072" type="line"/>
      <point x="1501" y="3072" type="line"/>
      <point x="788" y="0" type="line"/>
      <point x="154" y="0" type="line"/>
    </contour>
    <contour>
      <point x="498" y="3072" type="line"/>
      <point x="2771" y="3072" type="line"/>
      <point x="2574" y="2232" type="line"/>
      <point x="2562" y="2232" type="line"/>
      <point x="2603" y="2670"/>
      <point x="2411" y="3060"/>
      <point x="1931" y="3060" type="curve" smooth="yes"/>
      <point x="498" y="3060" type="line"/>
    </contour>
  </outline>
</glyph>
<glyph name="G" format="2">
  <advance width="1560"/>
  <unicode hex="0047"/>
  <outline>
    <contour>
      <point x="1073" y="569" type="line"/>
      <point x="1401" y="569" type="line"/>
      <point x="1339" y="330" type="line"/>
      <point x="1249" y="204"/>
      <point x="991" y="-20"/>
      <point x="665" y="-20" type="curve" smooth="yes"/>
      <point x="339" y="-20"/>
      <point x="105" y="164"/>
      <point x="105" y="510" type="curve" smooth="yes"/>
      <point x="105" y="1076"/>
      <point x="549" y="1520"/>
      <point x="1025" y="1520" type="curve" smooth="yes"/>
      <point x="1281" y="1520"/>
      <point x="1455" y="1346"/>
      <point x="1459" y="1060" type="curve"/>
      <point x="1453" y="1060" type="line"/>
      <point x="1448" y="1345"/>
      <point x="1276" y="1502"/>
      <point x="1075" y="1502" type="curve" smooth="yes"/>
      <point x="667" y="1502"/>
      <point x="435" y="824"/>
      <point x="435" y="390" type="curve" smooth="yes"/>
      <point x="435" y="186"/>
      <point x="483" y="-14"/>
      <point x="661" y="-14" type="curve" smooth="yes"/>
      <point x="839" y="-14"/>
      <point x="939" y="166"/>
      <point x="989" y="250" type="curve"/>
    </contour>
    <contour>
      <point x="875" y="572" type="line"/>
      <point x="1515" y="572" type="line"/>
      <point x="1515" y="568" type="line"/>
      <point x="875" y="568" type="line"/>
    </contour>
    <contour>
      <point x="1555" y="1500" type="line"/>
      <point x="1561" y="1500" type="line"/>
      <point x="1459" y="1060" type="line"/>
      <point x="1455" y="1060" type="line"/>
      <point x="1452" y="1119" type="line"/>
      <point x="1445" y="1196"/>
      <point x="1409" y="1305"/>
      <point x="1352" y="1374" type="curve"/>
    </contour>
  </outline>
</glyph>
<glyph name="H" format="2">
  <advance width="3184"/>
  <unicode hex="0048"/>
  <outline>
    <contour>
      <point x="1566" y="12" type="line"/>
      <point x="2898" y="12" type="line"/>
      <point x="2898" y="0" type="line"/>
      <point x="1566" y="0" type="line"/>
    </contour>
    <contour>
      <point x="2242" y="3072" type="line"/>
      <point x="3574" y="3072" type="line"/>
      <point x="3574" y="3060" type="line"/>
      <point x="2242" y="3060" type="line"/>
    </contour>
    <contour>
      <point x="2590" y="3072" type="line"/>
      <point x="3226" y="3072" type="line"/>
      <point x="2529" y="0" type="line"/>
      <point x="1894" y="0" type="line"/>
    </contour>
    <contour>
      <point x="-174" y="12" type="line"/>
      <point x="1157" y="12" type="line"/>
      <point x="1157" y="0" type="line"/>
      <point x="-174" y="0" type="line"/>
    </contour>
    <contour>
      <point x="502" y="3072" type="line"/>
      <point x="1833" y="3072" type="line"/>
      <point x="1833" y="3060" type="line"/>
      <point x="502" y="3060" type="line"/>
    </contour>
    <contour>
      <point x="870" y="3072" type="line"/>
      <point x="1505" y="3072" type="line"/>
      <point x="809" y="0" type="line"/>
      <point x="174" y="0" type="line"/>
    </contour>
    <contour>
      <point x="897" y="1520" type="line"/>
      <point x="2371" y="1520" type="line"/>
      <point x="2371" y="1512" type="line"/>
      <point x="897" y="1512" type="line"/>
    </contour>
  </outline>
</glyph>
<glyph name="J" format="2">
  <advance width="2144"/>
  <unicode hex="004A"/>
  <outline>
    <contour>
      <point x="936" y="3072" type="line"/>
      <point x="2534" y="3072" type="line"/>
      <point x="2534" y="3060" type="line"/>
      <point x="936" y="3060" type="line"/>
    </contour>
    <contour>
      <point x="-102" y="336" type="curve"/>
      <point x="-71" y="121"/>
      <point x="148" y="-102"/>
      <point x="445" y="-102" type="curve" smooth="yes"/>
      <point x="695" y="-102"/>
      <point x="836" y="204"/>
      <point x="968" y="778" type="curve" smooth="yes"/>
      <point x="1488" y="3072" type="line"/>
      <point x="2124" y="3072" type="line"/>
      <point x="1588" y="692" type="line"/>
      <point x="1322" y="303"/>
      <point x="1002" y="-122"/>
      <point x="506" y="-122" type="curve" smooth="yes"/>
      <point x="109" y="-122"/>
      <point x="-133" y="144"/>
      <point x="-133" y="430" type="curve" smooth="yes"/>
      <point x="-133" y="643"/>
      <point x="18" y="819"/>
      <point x="243" y="819" type="curve" smooth="yes"/>
      <point x="427" y="819"/>
      <point x="596" y="683"/>
      <point x="596" y="454" type="curve" smooth="yes"/>
      <point x="596" y="235"/>
      <point x="419" y="95"/>
      <point x="235" y="95" type="curve" smooth="yes"/>
      <point x="83" y="95"/>
      <point x="-65" y="201"/>
    </contour>
  </outline>
</glyph>
<glyph name="K" format="2">
  <advance width="1518"/>
  <unicode hex="004B"/>
  <outline>
    <contour>
      <point x="-85" y="6" type="line"/>
      <point x="565" y="6" type="line"/>
      <point x="565" y="0" type="line"/>
      <point x="-85" y="0" type="line"/>
    </contour>
    <contour>
      <point x="245" y="1500" type="line"/>
      <point x="915" y="1500" type="line"/>
      <point x="915" y="1494" type="line"/>
      <point x="245" y="1494" type="line"/>
    </contour>
    <contour>
      <point x="425" y="1500" type="line"/>
      <point x="735" y="1500" type="line"/>
      <point x="395" y="0" type="line"/>
      <point x="85" y="0" type="line"/>
    </contour>
    <contour>
      <point x="304" y="434" type="line"/>
      <point x="294" y="434" type="line"/>
      <point x="1425" y="1498" type="line"/>
      <point x="1435" y="1498" type="line"/>
    </contour>
    <contour>
      <point x="679" y="6" type="line"/>
      <point x="1395" y="6" type="line"/>
      <point x="1395" y="0" type="line"/>
      <point x="679" y="0" type="line"/>
    </contour>
    <contour>
      <point x="1639" y="1494" type="line"/>
      <point x="1159" y="1494" type="line"/>
      <point x="1159" y="1500" type="line"/>
      <point x="1639" y="1500" type="line"/>
    </contour>
    <contour>
      <point x="1229" y="0" type="line"/>
      <point x="886" y="0" type="line"/>
      <point x="635" y="753" type="line"/>
      <point x="891" y="980" type="line"/>
    </contour>
  </outline>
</glyph>
<glyph name="L" format="2">
  <advance width="1213"/>
  <unicode hex="004C"/>
  <outline>
    <contour>
      <point x="423" y="1500" type="line"/>
      <point x="733" y="1500" type="line"/>
      <point x="385" y="0" type="line"/>
      <point x="75" y="0" type="line"/>
    </contour>
    <contour>
      <point x="243" y="1500" type="line"/>
      <point x="913" y="1500" type="line"/>
      <point x="913" y="1494" type="line"/>
      <point x="243" y="1494" type="line"/>
    </contour>
    <contour>
      <point x="1050" y="0" type="line"/>
      <point x="-95" y="0" type="line"/>
      <point x="-95" y="6" type="line"/>
      <point x="590" y="6" type="line" smooth="yes"/>
      <point x="904" y="6"/>
      <point x="1060" y="196"/>
      <point x="1148" y="450" type="curve"/>
      <point x="1154" y="450" type="line"/>
    </contour>
  </outline>
</glyph>
<glyph name="M" format="2">
  <advance width="3655"/>
  <unicode hex="004D"/>
  <outline>
    <contour>
      <point x="2120" y="12" type="line"/>
      <point x="3369" y="12" type="line"/>
      <point x="3369" y="0" type="line"/>
      <point x="2120" y="0" type="line"/>
    </contour>
    <contour>
      <point x="3688" y="3060" type="line"/>
      <point x="3041" y="0" type="line"/>
      <point x="2406" y="0" type="line"/>
      <point x="3062" y="3072" type="line"/>
      <point x="3942" y="3072" type="line"/>
      <point x="3942" y="3060" type="line"/>
    </contour>
    <contour>
      <point x="1820" y="868" type="line"/>
      <point x="3058" y="3072" type="line"/>
      <point x="3070" y="3072" type="line"/>
      <point x="1323" y="-40" type="line"/>
      <point x="1304" y="-40" type="line"/>
      <point x="822" y="3072" type="line"/>
      <point x="1460" y="3072" type="line"/>
    </contour>
    <contour>
      <point x="817" y="3060" type="line"/>
      <point x="502" y="3060" type="line"/>
      <point x="502" y="3072" type="line"/>
      <point x="832" y="3072" type="line"/>
      <point x="180" y="0" type="line"/>
      <point x="168" y="0" type="line"/>
    </contour>
    <contour>
      <point x="-112" y="12" type="line"/>
      <point x="530" y="12" type="line"/>
      <point x="530" y="0" type="line"/>
      <point x="-112" y="0" type="line"/>
    </contour>
  </outline>
</glyph>
<glyph name="N" format="2">
  <advance width="3040"/>
  <unicode hex="004E"/>
  <outline>
    <contour>
      <point x="2990" y="3072" type="line"/>
      <point x="3002" y="3072" type="line"/>
      <point x="2294" y="-40" type="line"/>
      <point x="2255" y="-40" type="line"/>
      <point x="912" y="3072" type="line"/>
      <point x="1669" y="3072" type="line"/>
      <point x="2532" y="1057" type="line"/>
    </contour>
    <contour>
      <point x="2498" y="3072" type="line"/>
      <point x="3431" y="3072" type="line"/>
      <point x="3431" y="3060" type="line"/>
      <point x="2498" y="3060" type="line"/>
    </contour>
    <contour>
      <point x="-154" y="12" type="line"/>
      <point x="739" y="12" type="line"/>
      <point x="739" y="0" type="line"/>
      <point x="-154" y="0" type="line"/>
    </contour>
    <contour>
      <point x="912" y="3060" type="line"/>
      <point x="502" y="3060" type="line"/>
      <point x="502" y="3072" type="line"/>
      <point x="926" y="3072" type="line"/>
      <point x="244" y="0" type="line"/>
      <point x="232" y="0" type="line"/>
    </contour>
  </outline>
</glyph>
<glyph name="O" format="2">
  <advance width="1504"/>
  <unicode hex="004F"/>
  <outline>
    <contour>
      <point x="635" y="-20" type="curve" smooth="yes"/>
      <point x="299" y="-20"/>
      <point x="105" y="184"/>
      <point x="105" y="510" type="curve" smooth="yes"/>
      <point x="105" y="1096"/>
      <point x="549" y="1520"/>
      <point x="975" y="1520" type="curve" smooth="yes"/>
      <point x="1291" y="1520"/>
      <point x="1505" y="1316"/>
      <point x="1505" y="990" type="curve" smooth="yes"/>
      <point x="1505" y="404"/>
      <point x="1081" y="-20"/>
    </contour>
    <contour>
      <point x="975" y="1514" type="curve" smooth="yes"/>
      <point x="667" y="1514"/>
      <point x="425" y="794"/>
      <point x="425" y="330" type="curve" smooth="yes"/>
      <point x="425" y="116"/>
      <point x="477" y="-14"/>
      <point x="635" y="-14" type="curve" smooth="yes"/>
      <point x="963" y="-14"/>
      <point x="1185" y="706"/>
      <point x="1185" y="1170" type="curve" smooth="yes"/>
      <point x="1185" y="1344"/>
      <point x="1133" y="1514"/>
    </contour>
  </outline>
</glyph>
<glyph name="Q" format="2">
  <advance width="3020"/>
  <unicode hex="0051"/>
  <outline>
    <contour>
      <point x="1955" y="-1012" type="curve"/>
      <point x="1955" y="-1024" type="line"/>
      <point x="1042" y="-1024"/>
      <point x="749" y="-690"/>
      <point x="953" y="18" type="curve"/>
      <point x="1181" y="-54"/>
      <point x="1429" y="-52"/>
      <point x="1669" y="18" type="curve"/>
      <point x="1465" y="-728"/>
      <point x="1593" y="-1012"/>
    </contour>
    <contour>
      <point x="1997" y="3100" type="curve" smooth="yes"/>
      <point x="1366" y="3100"/>
      <point x="870" y="1625"/>
      <point x="870" y="675" type="curve" smooth="yes"/>
      <point x="870" y="257"/>
      <point x="976" y="-28"/>
      <point x="1300" y="-28" type="curve" smooth="yes"/>
      <point x="1971" y="-28"/>
      <point x="2427" y="1447"/>
      <point x="2427" y="2397" type="curve" smooth="yes"/>
      <point x="2427" y="2733"/>
      <point x="2321" y="3100"/>
    </contour>
    <contour>
      <point x="1300" y="-40" type="curve" smooth="yes"/>
      <point x="612" y="-40"/>
      <point x="215" y="376"/>
      <point x="215" y="1044" type="curve" smooth="yes"/>
      <point x="215" y="2244"/>
      <point x="1125" y="3112"/>
      <point x="1997" y="3112" type="curve" smooth="yes"/>
      <point x="2644" y="3112"/>
      <point x="3082" y="2696"/>
      <point x="3082" y="2028" type="curve" smooth="yes"/>
      <point x="3082" y="828"/>
      <point x="2214" y="-40"/>
    </contour>
  </outline>
</glyph>
<glyph name="R" format="2">
  <advance width="1534"/>
  <unicode hex="0052"/>
  <outline>
    <contour>
      <point x="1385" y="24" type="line"/>
      <point x="1313" y="-4"/>
      <point x="1247" y="-15"/>
      <point x="1155" y="-15" type="curve" smooth="yes"/>
      <point x="599" y="-15"/>
      <point x="1197" y="768"/>
      <point x="705" y="768" type="curve" smooth="yes"/>
      <point x="545" y="768" type="line"/>
      <point x="545" y="772" type="line"/>
      <point x="795" y="772" type="line" smooth="yes"/>
      <point x="1531" y="772"/>
      <point x="1056" y="6"/>
      <point x="1282" y="6" type="curve" smooth="yes"/>
      <point x="1314" y="6"/>
      <point x="1349" y="16"/>
      <point x="1383" y="29" type="curve"/>
    </contour>
    <contour>
      <point x="465" y="1500" type="line"/>
      <point x="775" y="1500" type="line"/>
      <point x="425" y="0" type="line"/>
      <point x="115" y="0" type="line"/>
    </contour>
    <contour>
      <point x="-75" y="6" type="line"/>
      <point x="645" y="6" type="line"/>
      <point x="645" y="0" type="line"/>
      <point x="-75" y="0" type="line"/>
    </contour>
    <contour>
      <point x="795" y="768" type="curve" smooth="yes"/>
      <point x="545" y="768" type="line"/>
      <point x="545" y="772" type="line"/>
      <point x="745" y="772" type="line" smooth="yes"/>
      <point x="1027" y="772"/>
      <point x="1130" y="1072"/>
      <point x="1130" y="1250" type="curve" smooth="yes"/>
      <point x="1130" y="1348"/>
      <point x="1101" y="1494"/>
      <point x="925" y="1494" type="curve" smooth="yes"/>
      <point x="255" y="1494" type="line"/>
      <point x="255" y="1500" type="line"/>
      <point x="995" y="1500" type="line" smooth="yes"/>
      <point x="1257" y="1500"/>
      <point x="1455" y="1420"/>
      <point x="1455" y="1200" type="curve" smooth="yes"/>
      <point x="1455" y="920"/>
      <point x="1197" y="768"/>
    </contour>
  </outline>
</glyph>
<glyph name="S" format="2">
  <advance width="1186"/>
  <unicode hex="0053"/>
  <outline>
    <contour>
      <point x="1146" y="1125" type="line"/>
      <point x="1124" y="1216"/>
      <point x="1100" y="1304"/>
      <point x="1032" y="1393" type="curve"/>
      <point x="1251" y="1520" type="line"/>
      <point x="1257" y="1520" type="line"/>
      <point x="1155" y="1070" type="line"/>
      <point x="1149" y="1070" type="line"/>
    </contour>
    <contour>
      <point x="1155" y="1070" type="curve"/>
      <point x="1149" y="1070" type="line"/>
      <point x="1118" y="1328"/>
      <point x="996" y="1511"/>
      <point x="755" y="1511" type="curve" smooth="yes"/>
      <point x="613" y="1511"/>
      <point x="471" y="1417"/>
      <point x="471" y="1260" type="curve" smooth="yes"/>
      <point x="471" y="920"/>
      <point x="1096" y="1010"/>
      <point x="1096" y="500" type="curve" smooth="yes"/>
      <point x="1096" y="220"/>
      <point x="833" y="-30"/>
      <point x="511" y="-30" type="curve" smooth="yes"/>
      <point x="199" y="-30"/>
      <point x="95" y="210"/>
      <point x="61" y="450" type="curve"/>
      <point x="67" y="450" type="line"/>
      <point x="97" y="227"/>
      <point x="200" y="-21"/>
      <point x="501" y="-21" type="curve" smooth="yes"/>
      <point x="703" y="-21"/>
      <point x="841" y="102"/>
      <point x="841" y="280" type="curve" smooth="yes"/>
      <point x="841" y="680"/>
      <point x="221" y="560"/>
      <point x="221" y="1030" type="curve" smooth="yes"/>
      <point x="221" y="1350"/>
      <point x="523" y="1520"/>
      <point x="745" y="1520" type="curve" smooth="yes"/>
      <point x="1001" y="1520"/>
      <point x="1125" y="1332"/>
    </contour>
    <contour>
      <point x="-39" y="-20" type="line"/>
      <point x="-45" y="-20" type="line"/>
      <point x="61" y="450" type="line"/>
      <point x="67" y="450" type="line"/>
      <point x="77" y="372" type="line"/>
      <point x="103" y="272"/>
      <point x="138" y="181"/>
      <point x="189" y="117" type="curve"/>
    </contour>
  </outline>
</glyph>
<glyph name="T" format="2">
  <advance width="1343"/>
  <unicode hex="0054"/>
  <outline>
    <contour>
      <point x="186" y="6" type="line"/>
      <point x="936" y="6" type="line"/>
      <point x="936" y="0" type="line"/>
      <point x="186" y="0" type="line"/>
    </contour>
    <contour>
      <point x="744" y="1500" type="line"/>
      <point x="1054" y="1500" type="line"/>
      <point x="706" y="0" type="line"/>
      <point x="396" y="0" type="line"/>
    </contour>
    <contour>
      <point x="1174" y="1494" type="curve" smooth="yes"/>
      <point x="604" y="1494" type="line" smooth="yes"/>
      <point x="390" y="1494"/>
      <point x="239" y="1272"/>
      <point x="151" y="1020" type="curve"/>
      <point x="145" y="1020" type="line"/>
      <point x="254" y="1500" type="line"/>
      <point x="1544" y="1500" type="line"/>
      <point x="1435" y="1020" type="line"/>
      <point x="1429" y="1020" type="line"/>
      <point x="1457" y="1274"/>
      <point x="1388" y="1494"/>
    </contour>
  </outline>
</glyph>
<glyph name="U" format="2">
  <advance width="1420"/>
  <unicode hex="0055"/>
  <outline>
    <contour>
      <point x="1221" y="1500" type="line"/>
      <point x="1611" y="1500" type="line"/>
      <point x="1611" y="1494" type="line"/>
      <point x="1221" y="1494" type="line"/>
    </contour>
    <contour>
      <point x="241" y="1500" type="line"/>
      <point x="931" y="1500" type="line"/>
      <point x="931" y="1494" type="line"/>
      <point x="241" y="1494" type="line"/>
    </contour>
    <contour>
      <point x="1429" y="1500" type="line"/>
      <point x="1433" y="1500" type="line"/>
      <point x="1193" y="460" type="line" smooth="yes"/>
      <point x="1121" y="146"/>
      <point x="957" y="-30"/>
      <point x="641" y="-30" type="curve" smooth="yes"/>
      <point x="315" y="-30"/>
      <point x="115" y="132"/>
      <point x="191" y="460" type="curve" smooth="yes"/>
      <point x="431" y="1500" type="line"/>
      <point x="741" y="1500" type="line"/>
      <point x="501" y="480" type="line" smooth="yes"/>
      <point x="443" y="230"/>
      <point x="457" y="-8"/>
      <point x="705" y="-8" type="curve" smooth="yes"/>
      <point x="960" y="-8"/>
      <point x="1119" y="154"/>
      <point x="1189" y="460" type="curve" smooth="yes"/>
    </contour>
  </outline>
</glyph>
<glyph name="V" format="2">
  <advance width="1534"/>
  <unicode hex="0056"/>
  <outline>
    <contour>
      <point x="1735" y="1494" type="line"/>
      <point x="1295" y="1494" type="line"/>
      <point x="1295" y="1500" type="line"/>
      <point x="1735" y="1500" type="line"/>
    </contour>
    <contour>
      <point x="935" y="1494" type="line"/>
      <point x="235" y="1494" type="line"/>
      <point x="235" y="1500" type="line"/>
      <point x="935" y="1500" type="line"/>
    </contour>
    <contour>
      <point x="831" y="277" type="line"/>
      <point x="1540" y="1500" type="line"/>
      <point x="1547" y="1500" type="line"/>
      <point x="669" y="-16" type="line"/>
      <point x="565" y="-16" type="line"/>
      <point x="375" y="1500" type="line"/>
      <point x="705" y="1500" type="line"/>
    </contour>
  </outline>
</glyph>
<glyph name="W" format="2">
  <advance width="2190"/>
  <unicode hex="0057"/>
  <outline>
    <contour>
      <point x="888" y="336" type="line"/>
      <point x="1215" y="894" type="line"/>
      <point x="1221" y="894" type="line"/>
      <point x="685" y="-20" type="line"/>
      <point x="596" y="-20" type="line"/>
      <point x="399" y="1500" type="line"/>
      <point x="746" y="1500" type="line"/>
    </contour>
    <contour>
      <point x="1330" y="834" type="line"/>
      <point x="1324" y="834" type="line"/>
      <point x="1719" y="1500" type="line"/>
      <point x="1725" y="1500" type="line"/>
    </contour>
    <contour>
      <point x="2391" y="1494" type="line"/>
      <point x="2001" y="1494" type="line"/>
      <point x="2001" y="1500" type="line"/>
      <point x="2391" y="1500" type="line"/>
    </contour>
    <contour>
      <point x="1915" y="1494" type="line"/>
      <point x="235" y="1494" type="line"/>
      <point x="235" y="1500" type="line"/>
      <point x="1915" y="1500" type="line"/>
    </contour>
    <contour>
      <point x="1503" y="337" type="line"/>
      <point x="2192" y="1500" type="line"/>
      <point x="2198" y="1500" type="line"/>
      <point x="1297" y="-20" type="line"/>
      <point x="1238" y="-20" type="line"/>
      <point x="1041" y="1500" type="line"/>
      <point x="1356" y="1500" type="line"/>
    </contour>
  </outline>
</glyph>
<glyph name="X" format="2">
  <advance width="1554"/>
  <unicode hex="0058"/>
  <outline>
    <contour>
      <point x="844" y="754" type="line"/>
      <point x="835" y="754" type="line"/>
      <point x="1456" y="1496" type="line"/>
      <point x="1464" y="1496" type="line"/>
    </contour>
    <contour>
      <point x="115" y="0" type="line"/>
      <point x="107" y="0" type="line"/>
      <point x="828" y="834" type="line"/>
      <point x="836" y="834" type="line"/>
    </contour>
    <contour>
      <point x="755" y="6" type="line"/>
      <point x="1435" y="6" type="line"/>
      <point x="1435" y="0" type="line"/>
      <point x="755" y="0" type="line"/>
    </contour>
    <contour>
      <point x="-105" y="6" type="line"/>
      <point x="375" y="6" type="line"/>
      <point x="375" y="0" type="line"/>
      <point x="-105" y="0" type="line"/>
    </contour>
    <contour>
      <point x="985" y="1494" type="line"/>
      <point x="305" y="1494" type="line"/>
      <point x="305" y="1500" type="line"/>
      <point x="985" y="1500" type="line"/>
    </contour>
    <contour>
      <point x="1675" y="1494" type="line"/>
      <point x="1235" y="1494" type="line"/>
      <point x="1235" y="1500" type="line"/>
      <point x="1675" y="1500" type="line"/>
    </contour>
    <contour>
      <point x="1297" y="0" type="line"/>
      <point x="947" y="0" type="line"/>
      <point x="445" y="1500" type="line"/>
      <point x="787" y="1500" type="line"/>
    </contour>
  </outline>
</glyph>
<glyph name="Z" format="2">
  <advance width="2483"/>
  <unicode hex="005A"/>
  <outline>
    <contour>
      <point x="1962" y="3060" type="line"/>
      <point x="1399" y="3060" type="line" smooth="yes"/>
      <point x="837" y="3060"/>
      <point x="577" y="2752"/>
      <point x="393" y="2314" type="curve"/>
      <point x="381" y="2314" type="line"/>
      <point x="559" y="3072" type="line"/>
      <point x="2750" y="3072" type="line"/>
      <point x="2750" y="3060" type="line"/>
      <point x="573" y="12" type="line"/>
      <point x="1259" y="12" type="line" smooth="yes"/>
      <point x="1821" y="12"/>
      <point x="2061" y="324"/>
      <point x="2282" y="840" type="curve"/>
      <point x="2294" y="840" type="line"/>
      <point x="2099" y="0" type="line"/>
      <point x="-215" y="0" type="line"/>
      <point x="-215" y="12" type="line"/>
    </contour>
  </outline>
</glyph>
<glyph name="bracketleft" format="2">
  <advance width="1515"/>
  <unicode hex="005B"/>
  <outline>
    <contour>
      <point x="820" y="3194" type="line"/>
      <point x="1945" y="3194" type="line"/>
      <point x="1945" y="3182" type="line"/>
      <point x="1389" y="3182" type="line"/>
      <point x="537" y="-602" type="line"/>
      <point x="1085" y="-602" type="line"/>
      <point x="1085" y="-614" type="line"/>
      <point x="-40" y="-614" type="line"/>
    </contour>
  </outline>
</glyph>
<glyph name="a" format="2">
  <advance width="2620"/>
  <unicode hex="0061"/>
  <outline>
    <contour>
      <point x="1546" y="1286" type="curve" smooth="yes"/>
      <point x="1546" y="1545"/>
      <point x="1480" y="1792"/>
      <point x="1313" y="1792" type="curve" smooth="yes"/>
      <point x="1030" y="1792"/>
      <point x="693" y="1060"/>
      <point x="693" y="512" type="curve" smooth="yes"/>
      <point x="693" y="250"/>
      <point x="770" y="82"/>
      <point x="917" y="82" type="curve" smooth="yes"/>
      <point x="1273" y="82"/>
      <point x="1546" y="840"/>
    </contour>
    <contour>
      <point x="1558" y="1286" type="curve" smooth="yes"/>
      <point x="1558" y="844"/>
      <point x="1290" y="-40"/>
      <point x="712" y="-40" type="curve" smooth="yes"/>
      <point x="430" y="-40"/>
      <point x="62" y="124"/>
      <point x="62" y="656" type="curve" smooth="yes"/>
      <point x="62" y="1476"/>
      <point x="704" y="1924"/>
      <point x="1130" y="1924" type="curve" smooth="yes"/>
      <point x="1442" y="1924"/>
      <point x="1558" y="1662"/>
    </contour>
    <contour>
      <point x="2540" y="668" type="line"/>
      <point x="2384" y="258"/>
      <point x="2101" y="-40"/>
      <point x="1708" y="-40" type="curve" smooth="yes"/>
      <point x="1454" y="-40"/>
      <point x="1356" y="73"/>
      <point x="1356" y="279" type="curve" smooth="yes"/>
      <point x="1356" y="299"/>
      <point x="1360" y="359"/>
      <point x="1368" y="389" type="curve" smooth="yes"/>
      <point x="1458" y="738" type="line"/>
      <point x="1530" y="1012" type="line"/>
      <point x="1550" y="1203" type="line"/>
      <point x="1726" y="1884" type="line"/>
      <point x="2285" y="1884" type="line"/>
      <point x="1850" y="193" type="line" smooth="yes"/>
      <point x="1846" y="169"/>
      <point x="1842" y="139"/>
      <point x="1842" y="119" type="curve" smooth="yes"/>
      <point x="1842" y="73"/>
      <point x="1863" y="35"/>
      <point x="1917" y="35" type="curve" smooth="yes"/>
      <point x="2149" y="35"/>
      <point x="2403" y="328"/>
      <point x="2530" y="672" type="curve"/>
    </contour>
  </outline>
</glyph>
<glyph name="b" format="2">
  <advance width="1215"/>
  <unicode hex="0062"/>
  <outline>
    <contour>
      <point x="416" y="1494" type="line"/>
      <point x="262" y="1494" type="line"/>
      <point x="262" y="1500" type="line"/>
      <point x="698" y="1500" type="line"/>
      <point x="406" y="230" type="line"/>
      <point x="406" y="112"/>
      <point x="432" y="-14"/>
      <point x="514" y="-14" type="curve" smooth="yes"/>
      <point x="672" y="-14"/>
      <point x="848" y="400"/>
      <point x="848" y="668" type="curve" smooth="yes"/>
      <point x="848" y="776"/>
      <point x="810" y="877"/>
      <point x="738" y="877" type="curve" smooth="yes"/>
      <point x="623" y="877"/>
      <point x="512" y="698"/>
      <point x="458" y="460" type="curve"/>
      <point x="454" y="460" type="line"/>
      <point x="532" y="805"/>
      <point x="680" y="938"/>
      <point x="842" y="938" type="curve" smooth="yes"/>
      <point x="976" y="938"/>
      <point x="1156" y="876"/>
      <point x="1156" y="620" type="curve" smooth="yes"/>
      <point x="1156" y="200"/>
      <point x="840" y="-20"/>
      <point x="512" y="-20" type="curve" smooth="yes"/>
      <point x="350" y="-20"/>
      <point x="220" y="74"/>
      <point x="130" y="240" type="curve"/>
    </contour>
  </outline>
</glyph>
<glyph name="c" format="2">
  <advance width="987"/>
  <unicode hex="0063"/>
  <outline>
    <contour>
      <point x="943" y="736" type="curve"/>
      <point x="925" y="841"/>
      <point x="822" y="926"/>
      <point x="681" y="926" type="curve" smooth="yes"/>
      <point x="453" y="926"/>
      <point x="338" y="518"/>
      <point x="338" y="270" type="curve" smooth="yes"/>
      <point x="338" y="102"/>
      <point x="371" y="10"/>
      <point x="459" y="10" type="curve" smooth="yes"/>
      <point x="579" y="10"/>
      <point x="729" y="93"/>
      <point x="842" y="286" type="curve"/>
      <point x="848" y="286" type="line"/>
      <point x="736" y="92"/>
      <point x="570" y="-20"/>
      <point x="368" y="-20" type="curve" smooth="yes"/>
      <point x="206" y="-20"/>
      <point x="30" y="60"/>
      <point x="30" y="310" type="curve" smooth="yes"/>
      <point x="30" y="690"/>
      <point x="334" y="940"/>
      <point x="636" y="940" type="curve" smooth="yes"/>
      <point x="820" y="940"/>
      <point x="958" y="841"/>
      <point x="958" y="687" type="curve" smooth="yes"/>
      <point x="958" y="575"/>
      <point x="884" y="508"/>
      <point x="794" y="508" type="curve" smooth="yes"/>
      <point x="714" y="508"/>
      <point x="630" y="560"/>
      <point x="630" y="660" type="curve" smooth="yes"/>
      <point x="630" y="760"/>
      <point x="723" y="816"/>
      <point x="791" y="816" type="curve" smooth="yes"/>
      <point x="876" y="816"/>
      <point x="922" y="782"/>
    </contour>
  </outline>
</glyph>
<glyph name="d" format="2">
  <advance width="1299"/>
  <unicode hex="0064"/>
  <outline>
    <contour>
      <point x="1260" y="326" type="line"/>
      <point x="1184" y="126"/>
      <point x="1046" y="-20"/>
      <point x="854" y="-20" type="curve" smooth="yes"/>
      <point x="730" y="-20"/>
      <point x="666" y="26"/>
      <point x="666" y="146" type="curve" smooth="yes"/>
      <point x="666" y="156"/>
      <point x="669" y="178"/>
      <point x="671" y="190" type="curve" smooth="yes"/>
      <point x="713" y="363" type="line"/>
      <point x="747" y="502" type="line"/>
      <point x="757" y="582" type="line"/>
      <point x="965" y="1494" type="line"/>
      <point x="779" y="1494" type="line"/>
      <point x="779" y="1500" type="line"/>
      <point x="1245" y="1500" type="line"/>
      <point x="925" y="94" type="line" smooth="yes"/>
      <point x="923" y="82"/>
      <point x="921" y="68"/>
      <point x="921" y="58" type="curve" smooth="yes"/>
      <point x="921" y="36"/>
      <point x="929" y="15"/>
      <point x="957" y="15" type="curve" smooth="yes"/>
      <point x="1067" y="15"/>
      <point x="1195" y="157"/>
      <point x="1256" y="328" type="curve"/>
    </contour>
    <contour>
      <point x="755" y="628" type="curve" smooth="yes"/>
      <point x="755" y="754"/>
      <point x="723" y="875"/>
      <point x="641" y="875" type="curve" smooth="yes"/>
      <point x="503" y="875"/>
      <point x="338" y="518"/>
      <point x="338" y="250" type="curve" smooth="yes"/>
      <point x="338" y="122"/>
      <point x="376" y="40"/>
      <point x="448" y="40" type="curve" smooth="yes"/>
      <point x="622" y="40"/>
      <point x="755" y="410"/>
    </contour>
    <contour>
      <point x="761" y="628" type="curve" smooth="yes"/>
      <point x="761" y="412"/>
      <point x="630" y="-20"/>
      <point x="348" y="-20" type="curve" smooth="yes"/>
      <point x="210" y="-20"/>
      <point x="30" y="60"/>
      <point x="30" y="320" type="curve" smooth="yes"/>
      <point x="30" y="720"/>
      <point x="344" y="939"/>
      <point x="552" y="939" type="curve" smooth="yes"/>
      <point x="704" y="939"/>
      <point x="761" y="812"/>
    </contour>
  </outline>
</glyph>
<glyph name="e" format="2">
  <advance width="2084"/>
  <unicode hex="0065"/>
  <outline>
    <contour>
      <point x="693" y="473" type="curve" smooth="yes"/>
      <point x="693" y="231"/>
      <point x="760" y="6"/>
      <point x="961" y="6" type="curve" smooth="yes"/>
      <point x="1283" y="6"/>
      <point x="1622" y="276"/>
      <point x="1806" y="586" type="curve"/>
      <point x="1818" y="586" type="line"/>
      <point x="1638" y="270"/>
      <point x="1269" y="-40"/>
      <point x="815" y="-40" type="curve" smooth="yes"/>
      <point x="422" y="-40"/>
      <point x="62" y="143"/>
      <point x="62" y="635" type="curve" smooth="yes"/>
      <point x="62" y="1405"/>
      <point x="717" y="1926"/>
      <point x="1315" y="1926" type="curve" smooth="yes"/>
      <point x="1712" y="1926"/>
      <point x="2024" y="1797"/>
      <point x="2024" y="1503" type="curve" smooth="yes"/>
      <point x="2024" y="928"/>
      <point x="1089" y="871"/>
      <point x="635" y="871" type="curve"/>
      <point x="635" y="875" type="line"/>
      <point x="938" y="875"/>
      <point x="1487" y="1016"/>
      <point x="1487" y="1585" type="curve" smooth="yes"/>
      <point x="1487" y="1736"/>
      <point x="1459" y="1912"/>
      <point x="1344" y="1912" type="curve" smooth="yes"/>
      <point x="1062" y="1912"/>
      <point x="693" y="1104"/>
    </contour>
  </outline>
</glyph>
<glyph name="f" format="2">
  <advance width="829"/>
  <unicode hex="0066"/>
  <outline>
    <contour>
      <point x="138" y="920" type="line"/>
      <point x="868" y="920" type="line"/>
      <point x="868" y="914" type="line"/>
      <point x="138" y="914" type="line"/>
    </contour>
    <contour>
      <point x="1131" y="1348" type="curve"/>
      <point x="1111" y="1425"/>
      <point x="1014" y="1512"/>
      <point x="883" y="1512" type="curve" smooth="yes"/>
      <point x="743" y="1512"/>
      <point x="651" y="1324"/>
      <point x="608" y="1080" type="curve" smooth="yes"/>
      <point x="411" y="-24" type="line" smooth="yes"/>
      <point x="354" y="-344"/>
      <point x="135" y="-520"/>
      <point x="-125" y="-520" type="curve" smooth="yes"/>
      <point x="-317" y="-520"/>
      <point x="-415" y="-396"/>
      <point x="-415" y="-292" type="curve" smooth="yes"/>
      <point x="-415" y="-190"/>
      <point x="-352" y="-128"/>
      <point x="-262" y="-128" type="curve" smooth="yes"/>
      <point x="-182" y="-128"/>
      <point x="-99" y="-176"/>
      <point x="-99" y="-276" type="curve" smooth="yes"/>
      <point x="-99" y="-376"/>
      <point x="-172" y="-431"/>
      <point x="-260" y="-431" type="curve" smooth="yes"/>
      <point x="-323" y="-431"/>
      <point x="-376" y="-395"/>
      <point x="-395" y="-348" type="curve"/>
      <point x="-375" y="-425"/>
      <point x="-279" y="-512"/>
      <point x="-148" y="-512" type="curve" smooth="yes"/>
      <point x="-8" y="-512"/>
      <point x="84" y="-324"/>
      <point x="127" y="-80" type="curve" smooth="yes"/>
      <point x="324" y="1024" type="line" smooth="yes"/>
      <point x="381" y="1344"/>
      <point x="600" y="1520"/>
      <point x="860" y="1520" type="curve" smooth="yes"/>
      <point x="1052" y="1520"/>
      <point x="1150" y="1396"/>
      <point x="1150" y="1292" type="curve" smooth="yes"/>
      <point x="1150" y="1190"/>
      <point x="1087" y="1128"/>
      <point x="997" y="1128" type="curve" smooth="yes"/>
      <point x="917" y="1128"/>
      <point x="834" y="1176"/>
      <point x="834" y="1276" type="curve" smooth="yes"/>
      <point x="834" y="1376"/>
      <point x="907" y="1431"/>
      <point x="995" y="1431" type="curve" smooth="yes"/>
      <point x="1058" y="1431"/>
      <point x="1111" y="1395"/>
    </contour>
  </outline>
</glyph>
<glyph name="g" format="2">
  <advance width="1261"/>
  <unicode hex="0067"/>
  <outline>
    <contour>
      <point x="283" y="-60" type="line"/>
      <point x="213" y="-80"/>
      <point x="153" y="-170"/>
      <point x="153" y="-284" type="curve" smooth="yes"/>
      <point x="153" y="-410"/>
      <point x="215" y="-513"/>
      <point x="387" y="-513" type="curve" smooth="yes"/>
      <point x="565" y="-513"/>
      <point x="844" y="-429"/>
      <point x="844" y="-214" type="curve" smooth="yes"/>
      <point x="844" y="-106"/>
      <point x="780" y="-68"/>
      <point x="670" y="-68" type="curve" smooth="yes"/>
      <point x="628" y="-68"/>
      <point x="439" y="-68"/>
      <point x="395" y="-68" type="curve" smooth="yes"/>
      <point x="215" y="-68"/>
      <point x="69" y="-16"/>
      <point x="69" y="108" type="curve" smooth="yes"/>
      <point x="69" y="267"/>
      <point x="321" y="326"/>
      <point x="483" y="326" type="curve"/>
      <point x="483" y="320" type="line"/>
      <point x="417" y="320"/>
      <point x="260" y="306"/>
      <point x="260" y="232" type="curve" smooth="yes"/>
      <point x="260" y="188"/>
      <point x="347" y="168"/>
      <point x="457" y="168" type="curve" smooth="yes"/>
      <point x="527" y="168"/>
      <point x="613" y="170"/>
      <point x="669" y="170" type="curve" smooth="yes"/>
      <point x="849" y="170"/>
      <point x="940" y="88"/>
      <point x="940" y="-84" type="curve" smooth="yes"/>
      <point x="940" y="-366"/>
      <point x="653" y="-520"/>
      <point x="383" y="-520" type="curve" smooth="yes"/>
      <point x="147" y="-520"/>
      <point x="-90" y="-469"/>
      <point x="-90" y="-309" type="curve" smooth="yes"/>
      <point x="-90" y="-117"/>
      <point x="181" y="-60"/>
      <point x="271" y="-60" type="curve" smooth="yes"/>
    </contour>
    <contour>
      <point x="1302" y="766" type="curve" smooth="yes"/>
      <point x="1302" y="656"/>
      <point x="1235" y="618"/>
      <point x="1175" y="618" type="curve" smooth="yes"/>
      <point x="1115" y="618"/>
      <point x="1050" y="657"/>
      <point x="1050" y="743" type="curve" smooth="yes"/>
      <point x="1050" y="809"/>
      <point x="1110" y="862"/>
      <point x="1181" y="862" type="curve" smooth="yes"/>
      <point x="1245" y="862"/>
      <point x="1292" y="815"/>
      <point x="1298" y="773" type="curve"/>
      <point x="1289" y="876"/>
      <point x="1219" y="924"/>
      <point x="1129" y="924" type="curve" smooth="yes"/>
      <point x="1038" y="924"/>
      <point x="920" y="859"/>
      <point x="829" y="692" type="curve"/>
      <point x="824" y="694" type="line"/>
      <point x="914" y="866"/>
      <point x="1039" y="930"/>
      <point x="1129" y="930" type="curve" smooth="yes"/>
      <point x="1247" y="930"/>
      <point x="1302" y="849"/>
    </contour>
    <contour>
      <point x="486" y="326" type="curve" smooth="yes"/>
      <point x="604" y="326"/>
      <point x="694" y="612"/>
      <point x="694" y="780" type="curve" smooth="yes"/>
      <point x="694" y="848"/>
      <point x="674" y="934"/>
      <point x="616" y="934" type="curve" smooth="yes"/>
      <point x="498" y="934"/>
      <point x="408" y="648"/>
      <point x="408" y="480" type="curve" smooth="yes"/>
      <point x="408" y="412"/>
      <point x="428" y="326"/>
    </contour>
    <contour>
      <point x="481" y="320" type="curve" smooth="yes"/>
      <point x="289" y="320"/>
      <point x="135" y="390"/>
      <point x="135" y="570" type="curve" smooth="yes"/>
      <point x="135" y="790"/>
      <point x="369" y="940"/>
      <point x="621" y="940" type="curve" smooth="yes"/>
      <point x="813" y="940"/>
      <point x="967" y="870"/>
      <point x="967" y="690" type="curve" smooth="yes"/>
      <point x="967" y="470"/>
      <point x="733" y="320"/>
    </contour>
  </outline>
</glyph>
<glyph name="h" format="2">
  <advance width="1239"/>
  <unicode hex="0068"/>
  <outline>
    <contour>
      <point x="754" y="613" type="line" smooth="yes"/>
      <point x="806" y="766"/>
      <point x="825" y="912"/>
      <point x="753" y="912" type="curve" smooth="yes"/>
      <point x="599" y="912"/>
      <point x="468" y="652"/>
      <point x="395" y="346" type="curve"/>
      <point x="391" y="346" type="line"/>
      <point x="470" y="657"/>
      <point x="580" y="940"/>
      <point x="816" y="940" type="curve" smooth="yes"/>
      <point x="1020" y="940"/>
      <point x="1104" y="803"/>
      <point x="1042" y="616" type="curve" smooth="yes"/>
      <point x="864" y="80" type="line" smooth="yes"/>
      <point x="860" y="68"/>
      <point x="858" y="54"/>
      <point x="858" y="44" type="curve" smooth="yes"/>
      <point x="858" y="22"/>
      <point x="870" y="8"/>
      <point x="896" y="8" type="curve" smooth="yes"/>
      <point x="1009" y="8"/>
      <point x="1126" y="138"/>
      <point x="1195" y="327" type="curve"/>
      <point x="1200" y="326" type="line"/>
      <point x="1124" y="126"/>
      <point x="1006" y="-20"/>
      <point x="814" y="-20" type="curve" smooth="yes"/>
      <point x="680" y="-20"/>
      <point x="608" y="36"/>
      <point x="608" y="142" type="curve" smooth="yes"/>
      <point x="608" y="172"/>
      <point x="613" y="196"/>
      <point x="618" y="214" type="curve" smooth="yes"/>
    </contour>
    <contour>
      <point x="383" y="1494" type="line"/>
      <point x="245" y="1494" type="line"/>
      <point x="245" y="1500" type="line"/>
      <point x="665" y="1500" type="line"/>
      <point x="315" y="0" type="line"/>
      <point x="35" y="0" type="line"/>
    </contour>
  </outline>
</glyph>
<glyph name="i" format="2">
  <advance width="733"/>
  <unicode hex="0069"/>
  <outline>
    <contour>
      <point x="297" y="1350" type="curve" smooth="yes"/>
      <point x="297" y="1446"/>
      <point x="371" y="1520"/>
      <point x="467" y="1520" type="curve" smooth="yes"/>
      <point x="563" y="1520"/>
      <point x="637" y="1446"/>
      <point x="637" y="1350" type="curve" smooth="yes"/>
      <point x="637" y="1254"/>
      <point x="563" y="1180"/>
      <point x="467" y="1180" type="curve" smooth="yes"/>
      <point x="371" y="1180"/>
      <point x="297" y="1254"/>
    </contour>
    <contour>
      <point x="693" y="326" type="line"/>
      <point x="617" y="126"/>
      <point x="479" y="-20"/>
      <point x="287" y="-20" type="curve" smooth="yes"/>
      <point x="163" y="-20"/>
      <point x="100" y="26"/>
      <point x="100" y="146" type="curve" smooth="yes"/>
      <point x="100" y="156"/>
      <point x="101" y="178"/>
      <point x="104" y="190" type="curve" smooth="yes"/>
      <point x="278" y="914" type="line"/>
      <point x="125" y="914" type="line"/>
      <point x="125" y="920" type="line"/>
      <point x="559" y="920" type="line"/>
      <point x="358" y="94" type="line" smooth="yes"/>
      <point x="356" y="82"/>
      <point x="354" y="68"/>
      <point x="354" y="58" type="curve" smooth="yes"/>
      <point x="354" y="36"/>
      <point x="364" y="15"/>
      <point x="390" y="15" type="curve" smooth="yes"/>
      <point x="495" y="15"/>
      <point x="620" y="142"/>
      <point x="689" y="328" type="curve"/>
    </contour>
  </outline>
</glyph>
<glyph name="j" format="2">
  <advance width="598"/>
  <unicode hex="006A"/>
  <outline>
    <contour>
      <point x="309" y="1350" type="curve" smooth="yes"/>
      <point x="309" y="1446"/>
      <point x="383" y="1520"/>
      <point x="479" y="1520" type="curve" smooth="yes"/>
      <point x="575" y="1520"/>
      <point x="649" y="1446"/>
      <point x="649" y="1350" type="curve" smooth="yes"/>
      <point x="649" y="1254"/>
      <point x="575" y="1180"/>
      <point x="479" y="1180" type="curve" smooth="yes"/>
      <point x="383" y="1180"/>
      <point x="309" y="1254"/>
    </contour>
    <contour>
      <point x="-388" y="-342" type="curve"/>
      <point x="-365" y="-427"/>
      <point x="-265" y="-512"/>
      <point x="-144" y="-512" type="curve" smooth="yes"/>
      <point x="46" y="-512"/>
      <point x="34" y="-200"/>
      <point x="90" y="40" type="curve" smooth="yes"/>
      <point x="294" y="914" type="line"/>
      <point x="106" y="914" type="line"/>
      <point x="106" y="920" type="line"/>
      <point x="571" y="920" type="line"/>
      <point x="375" y="-24" type="line" smooth="yes"/>
      <point x="323" y="-274"/>
      <point x="126" y="-520"/>
      <point x="-134" y="-520" type="curve" smooth="yes"/>
      <point x="-296" y="-520"/>
      <point x="-410" y="-396"/>
      <point x="-410" y="-292" type="curve" smooth="yes"/>
      <point x="-410" y="-190"/>
      <point x="-326" y="-118"/>
      <point x="-236" y="-118" type="curve" smooth="yes"/>
      <point x="-156" y="-118"/>
      <point x="-84" y="-176"/>
      <point x="-84" y="-260" type="curve" smooth="yes"/>
      <point x="-84" y="-354"/>
      <point x="-163" y="-419"/>
      <point x="-256" y="-419" type="curve" smooth="yes"/>
      <point x="-324" y="-419"/>
      <point x="-365" y="-381"/>
    </contour>
  </outline>
</glyph>
<glyph name="l" format="2">
  <advance width="712"/>
  <unicode hex="006C"/>
  <outline>
    <contour>
      <point x="673" y="326" type="line"/>
      <point x="597" y="126"/>
      <point x="459" y="-20"/>
      <point x="267" y="-20" type="curve" smooth="yes"/>
      <point x="143" y="-20"/>
      <point x="80" y="26"/>
      <point x="80" y="146" type="curve" smooth="yes"/>
      <point x="80" y="156"/>
      <point x="82" y="178"/>
      <point x="84" y="190" type="curve" smooth="yes"/>
      <point x="383" y="1494" type="line"/>
      <point x="197" y="1494" type="line"/>
      <point x="197" y="1500" type="line"/>
      <point x="663" y="1500" type="line"/>
      <point x="338" y="94" type="line" smooth="yes"/>
      <point x="336" y="82"/>
      <point x="334" y="68"/>
      <point x="334" y="58" type="curve" smooth="yes"/>
      <point x="334" y="36"/>
      <point x="344" y="15"/>
      <point x="370" y="15" type="curve" smooth="yes"/>
      <point x="474" y="15"/>
      <point x="602" y="148"/>
      <point x="669" y="328" type="curve"/>
    </contour>
  </outline>
</glyph>
<glyph name="m" format="2">
  <advance width="3686"/>
  <unicode hex="006D"/>
  <outline>
    <contour>
      <point x="2691" y="1256" type="line" smooth="yes"/>
      <point x="2797" y="1570"/>
      <point x="2829" y="1849"/>
      <point x="2682" y="1849" type="curve" smooth="yes"/>
      <point x="2402" y="1849"/>
      <point x="2134" y="1388"/>
      <point x="1974" y="708" type="curve"/>
      <point x="1966" y="708" type="line"/>
      <point x="2120" y="1330"/>
      <point x="2357" y="1926"/>
      <point x="2830" y="1926" type="curve" smooth="yes"/>
      <point x="3248" y="1926"/>
      <point x="3407" y="1644"/>
      <point x="3280" y="1261" type="curve" smooth="yes"/>
      <point x="2916" y="164" type="line" smooth="yes"/>
      <point x="2908" y="140"/>
      <point x="2904" y="110"/>
      <point x="2904" y="90" type="curve" smooth="yes"/>
      <point x="2904" y="44"/>
      <point x="2928" y="14"/>
      <point x="2982" y="14" type="curve" smooth="yes"/>
      <point x="3215" y="14"/>
      <point x="3454" y="285"/>
      <point x="3596" y="672" type="curve"/>
      <point x="3604" y="668" type="line"/>
      <point x="3448" y="258"/>
      <point x="3207" y="-40"/>
      <point x="2814" y="-40" type="curve" smooth="yes"/>
      <point x="2540" y="-40"/>
      <point x="2392" y="74"/>
      <point x="2392" y="291" type="curve" smooth="yes"/>
      <point x="2392" y="353"/>
      <point x="2403" y="401"/>
      <point x="2413" y="438" type="curve" smooth="yes"/>
    </contour>
    <contour>
      <point x="1802" y="0" type="line"/>
      <point x="1229" y="0" type="line"/>
      <point x="1536" y="1262" type="line" smooth="yes"/>
      <point x="1614" y="1586"/>
      <point x="1679" y="1849"/>
      <point x="1532" y="1849" type="curve" smooth="yes"/>
      <point x="1235" y="1849"/>
      <point x="969" y="1349"/>
      <point x="823" y="708" type="curve"/>
      <point x="815" y="708" type="line"/>
      <point x="965" y="1326"/>
      <point x="1198" y="1926"/>
      <point x="1681" y="1926" type="curve" smooth="yes"/>
      <point x="2099" y="1926"/>
      <point x="2212" y="1673"/>
      <point x="2122" y="1306" type="curve" smooth="yes"/>
    </contour>
    <contour>
      <point x="528" y="1872" type="line"/>
      <point x="246" y="1872" type="line"/>
      <point x="246" y="1884" type="line"/>
      <point x="1106" y="1884" type="line"/>
      <point x="655" y="0" type="line"/>
      <point x="82" y="0" type="line"/>
    </contour>
  </outline>
</glyph>
<glyph name="n" format="2">
  <advance width="1249"/>
  <unicode hex="006E"/>
  <outline>
    <contour>
      <point x="254" y="914" type="line"/>
      <point x="116" y="914" type="line"/>
      <point x="116" y="920" type="line"/>
      <point x="536" y="920" type="line"/>
      <point x="315" y="0" type="line"/>
      <point x="35" y="0" type="line"/>
    </contour>
    <contour>
      <point x="754" y="613" type="line" smooth="yes"/>
      <point x="806" y="766"/>
      <point x="825" y="912"/>
      <point x="753" y="912" type="curve" smooth="yes"/>
      <point x="599" y="912"/>
      <point x="470" y="652"/>
      <point x="397" y="346" type="curve"/>
      <point x="393" y="346" type="line"/>
      <point x="472" y="657"/>
      <point x="580" y="940"/>
      <point x="816" y="940" type="curve" smooth="yes"/>
      <point x="1020" y="940"/>
      <point x="1104" y="803"/>
      <point x="1042" y="616" type="curve" smooth="yes"/>
      <point x="864" y="80" type="line" smooth="yes"/>
      <point x="860" y="68"/>
      <point x="858" y="54"/>
      <point x="858" y="44" type="curve" smooth="yes"/>
      <point x="858" y="22"/>
      <point x="870" y="8"/>
      <point x="896" y="8" type="curve" smooth="yes"/>
      <point x="1009" y="8"/>
      <point x="1132" y="138"/>
      <point x="1201" y="327" type="curve"/>
      <point x="1205" y="326" type="line"/>
      <point x="1129" y="126"/>
      <point x="1006" y="-20"/>
      <point x="814" y="-20" type="curve" smooth="yes"/>
      <point x="680" y="-20"/>
      <point x="608" y="36"/>
      <point x="608" y="142" type="curve" smooth="yes"/>
      <point x="608" y="172"/>
      <point x="613" y="196"/>
      <point x="618" y="214" type="curve" smooth="yes"/>
    </contour>
  </outline>
</glyph>
<glyph name="o" format="2">
  <advance width="2260"/>
  <unicode hex="006F"/>
  <outline>
    <contour>
      <point x="876" y="-40" type="curve" smooth="yes"/>
      <point x="483" y="-40"/>
      <point x="62" y="164"/>
      <point x="62" y="676" type="curve" smooth="yes"/>
      <point x="62" y="1454"/>
      <point x="684" y="1926"/>
      <point x="1323" y="1926" type="curve" smooth="yes"/>
      <point x="1716" y="1926"/>
      <point x="2138" y="1720"/>
      <point x="2138" y="1208" type="curve" smooth="yes"/>
      <point x="2138" y="430"/>
      <point x="1515" y="-40"/>
    </contour>
    <contour>
      <point x="876" y="-26" type="curve" smooth="yes"/>
      <point x="1281" y="-26"/>
      <point x="1549" y="946"/>
      <point x="1549" y="1454" type="curve" smooth="yes"/>
      <point x="1549" y="1737"/>
      <point x="1483" y="1910"/>
      <point x="1323" y="1910" type="curve" smooth="yes"/>
      <point x="918" y="1910"/>
      <point x="652" y="938"/>
      <point x="652" y="430" type="curve" smooth="yes"/>
      <point x="652" y="147"/>
      <point x="716" y="-26"/>
    </contour>
  </outline>
</glyph>
<glyph name="p" format="2">
  <advance width="1199"/>
  <unicode hex="0070"/>
  <outline>
    <contour>
      <point x="422" y="291" type="curve" smooth="yes"/>
      <point x="422" y="165"/>
      <point x="455" y="44"/>
      <point x="537" y="44" type="curve" smooth="yes"/>
      <point x="675" y="44"/>
      <point x="842" y="401"/>
      <point x="842" y="669" type="curve" smooth="yes"/>
      <point x="842" y="797"/>
      <point x="801" y="879"/>
      <point x="729" y="879" type="curve" smooth="yes"/>
      <point x="555" y="879"/>
      <point x="422" y="509"/>
    </contour>
    <contour>
      <point x="418" y="291" type="curve" smooth="yes"/>
      <point x="418" y="507"/>
      <point x="547" y="939"/>
      <point x="829" y="939" type="curve" smooth="yes"/>
      <point x="967" y="939"/>
      <point x="1150" y="859"/>
      <point x="1150" y="599" type="curve" smooth="yes"/>
      <point x="1150" y="199"/>
      <point x="834" y="-20"/>
      <point x="626" y="-20" type="curve" smooth="yes"/>
      <point x="474" y="-20"/>
      <point x="418" y="107"/>
    </contour>
    <contour>
      <point x="-190" y="-494" type="line"/>
      <point x="360" y="-494" type="line"/>
      <point x="360" y="-500" type="line"/>
      <point x="-190" y="-500" type="line"/>
    </contour>
    <contour>
      <point x="266" y="914" type="line"/>
      <point x="124" y="914" type="line"/>
      <point x="124" y="920" type="line"/>
      <point x="548" y="920" type="line"/>
      <point x="463" y="558" type="line"/>
      <point x="439" y="457" type="line"/>
      <point x="427" y="382" type="line"/>
      <point x="220" y="-500" type="line"/>
      <point x="-60" y="-500" type="line"/>
    </contour>
  </outline>
</glyph>
<glyph name="q" format="2">
  <advance width="1169"/>
  <unicode hex="0071"/>
  <outline>
    <contour>
      <point x="908" y="-494" type="line"/>
      <point x="908" y="-500" type="line"/>
      <point x="378" y="-500" type="line"/>
      <point x="378" y="-494" type="line"/>
    </contour>
    <contour>
      <point x="768" y="-500" type="line"/>
      <point x="508" y="-500" type="line"/>
      <point x="704" y="335" type="line"/>
      <point x="721" y="383"/>
      <point x="735" y="443"/>
      <point x="747" y="503" type="curve"/>
      <point x="757" y="585" type="line"/>
      <point x="832" y="900" type="line"/>
      <point x="1100" y="940" type="line"/>
    </contour>
    <contour>
      <point x="755" y="628" type="curve" smooth="yes"/>
      <point x="755" y="754"/>
      <point x="723" y="875"/>
      <point x="641" y="875" type="curve" smooth="yes"/>
      <point x="503" y="875"/>
      <point x="338" y="518"/>
      <point x="338" y="250" type="curve" smooth="yes"/>
      <point x="338" y="122"/>
      <point x="376" y="40"/>
      <point x="448" y="40" type="curve" smooth="yes"/>
      <point x="622" y="40"/>
      <point x="755" y="410"/>
    </contour>
    <contour>
      <point x="761" y="628" type="curve" smooth="yes"/>
      <point x="761" y="412"/>
      <point x="630" y="-20"/>
      <point x="348" y="-20" type="curve" smooth="yes"/>
      <point x="210" y="-20"/>
      <point x="30" y="60"/>
      <point x="30" y="320" type="curve" smooth="yes"/>
      <point x="30" y="720"/>
      <point x="344" y="939"/>
      <point x="552" y="939" type="curve" smooth="yes"/>
      <point x="704" y="939"/>
      <point x="761" y="812"/>
    </contour>
  </outline>
</glyph>
<glyph name="r" format="2">
  <advance width="951"/>
  <unicode hex="0072"/>
  <outline>
    <contour>
      <point x="1002" y="728" type="curve" smooth="yes"/>
      <point x="1002" y="635"/>
      <point x="942" y="556"/>
      <point x="836" y="556" type="curve" smooth="yes"/>
      <point x="740" y="556"/>
      <point x="668" y="617"/>
      <point x="668" y="716" type="curve" smooth="yes"/>
      <point x="668" y="806"/>
      <point x="737" y="880"/>
      <point x="835" y="880" type="curve" smooth="yes"/>
      <point x="910" y="880"/>
      <point x="964" y="836"/>
      <point x="986" y="784" type="curve"/>
      <point x="960" y="880"/>
      <point x="868" y="934"/>
      <point x="778" y="934" type="curve" smooth="yes"/>
      <point x="547" y="934"/>
      <point x="455" y="542"/>
      <point x="408" y="346" type="curve"/>
      <point x="404" y="346" type="line"/>
      <point x="454" y="559"/>
      <point x="544" y="940"/>
      <point x="778" y="940" type="curve" smooth="yes"/>
      <point x="891" y="940"/>
      <point x="1002" y="856"/>
    </contour>
    <contour>
      <point x="268" y="914" type="line"/>
      <point x="120" y="914" type="line"/>
      <point x="120" y="920" type="line"/>
      <point x="540" y="920" type="line"/>
      <point x="330" y="0" type="line"/>
      <point x="50" y="0" type="line"/>
    </contour>
  </outline>
</glyph>
<glyph name="s" format="2">
  <advance width="1850"/>
  <unicode hex="0073"/>
  <outline>
    <contour>
      <point x="1641" y="1577" type="curve"/>
      <point x="1598" y="1757"/>
      <point x="1368" y="1908"/>
      <point x="1020" y="1908" type="curve" smooth="yes"/>
      <point x="782" y="1908"/>
      <point x="643" y="1773"/>
      <point x="643" y="1626" type="curve" smooth="yes"/>
      <point x="643" y="1217"/>
      <point x="1565" y="1167"/>
      <point x="1565" y="623" type="curve" smooth="yes"/>
      <point x="1565" y="237"/>
      <point x="1176" y="-50"/>
      <point x="717" y="-50" type="curve" smooth="yes"/>
      <point x="188" y="-50"/>
      <point x="-20" y="225"/>
      <point x="-20" y="451" type="curve" smooth="yes"/>
      <point x="-20" y="639"/>
      <point x="128" y="745"/>
      <point x="271" y="745" type="curve" smooth="yes"/>
      <point x="394" y="745"/>
      <point x="548" y="659"/>
      <point x="548" y="475" type="curve" smooth="yes"/>
      <point x="548" y="311"/>
      <point x="414" y="209"/>
      <point x="275" y="209" type="curve" smooth="yes"/>
      <point x="134" y="209"/>
      <point x="22" y="301"/>
      <point x="6" y="383" type="curve"/>
      <point x="43" y="174"/>
      <point x="261" y="-36"/>
      <point x="717" y="-36" type="curve" smooth="yes"/>
      <point x="1003" y="-36"/>
      <point x="1183" y="111"/>
      <point x="1183" y="299" type="curve" smooth="yes"/>
      <point x="1183" y="676"/>
      <point x="249" y="701"/>
      <point x="249" y="1299" type="curve" smooth="yes"/>
      <point x="249" y="1705"/>
      <point x="659" y="1922"/>
      <point x="1020" y="1922" type="curve" smooth="yes"/>
      <point x="1424" y="1922"/>
      <point x="1667" y="1718"/>
      <point x="1667" y="1505" type="curve" smooth="yes"/>
      <point x="1667" y="1337"/>
      <point x="1554" y="1241"/>
      <point x="1411" y="1241" type="curve" smooth="yes"/>
      <point x="1288" y="1241"/>
      <point x="1147" y="1327"/>
      <point x="1147" y="1491" type="curve" smooth="yes"/>
      <point x="1147" y="1634"/>
      <point x="1264" y="1737"/>
      <point x="1399" y="1737" type="curve" smooth="yes"/>
      <point x="1521" y="1737"/>
      <point x="1598" y="1677"/>
    </contour>
  </outline>
</glyph>
<glyph name="u" format="2">
  <advance width="1310"/>
  <unicode hex="0075"/>
  <outline>
    <contour>
      <point x="547" y="920" type="line"/>
      <point x="398" y="285" type="line" smooth="yes"/>
      <point x="362" y="127"/>
      <point x="353" y="24"/>
      <point x="431" y="24" type="curve" smooth="yes"/>
      <point x="556" y="24"/>
      <point x="691" y="257"/>
      <point x="769" y="574" type="curve"/>
      <point x="775" y="574" type="line"/>
      <point x="690" y="253"/>
      <point x="574" y="-20"/>
      <point x="343" y="-20" type="curve" smooth="yes"/>
      <point x="149" y="-20"/>
      <point x="85" y="118"/>
      <point x="121" y="282" type="curve" smooth="yes"/>
      <point x="263" y="914" type="line"/>
      <point x="123" y="914" type="line"/>
      <point x="123" y="920" type="line"/>
    </contour>
    <contour>
      <point x="1271" y="326" type="line"/>
      <point x="1195" y="126"/>
      <point x="1057" y="-20"/>
      <point x="865" y="-20" type="curve" smooth="yes"/>
      <point x="741" y="-20"/>
      <point x="676" y="26"/>
      <point x="676" y="146" type="curve" smooth="yes"/>
      <point x="676" y="156"/>
      <point x="678" y="178"/>
      <point x="680" y="190" type="curve" smooth="yes"/>
      <point x="845" y="920" type="line"/>
      <point x="1127" y="920" type="line"/>
      <point x="934" y="94" type="line" smooth="yes"/>
      <point x="932" y="82"/>
      <point x="930" y="68"/>
      <point x="930" y="58" type="curve" smooth="yes"/>
      <point x="930" y="36"/>
      <point x="940" y="20"/>
      <point x="966" y="20" type="curve" smooth="yes"/>
      <point x="1087" y="20"/>
      <point x="1206" y="165"/>
      <point x="1267" y="328" type="curve"/>
    </contour>
  </outline>
</glyph>
<glyph name="v" format="2">
  <advance width="2461"/>
  <unicode hex="0076"/>
  <outline>
    <contour>
      <point x="1099" y="543" type="line" smooth="yes"/>
      <point x="1045" y="219"/>
      <point x="997" y="8"/>
      <point x="1227" y="8" type="curve" smooth="yes"/>
      <point x="1667" y="8"/>
      <point x="2388" y="728"/>
      <point x="2388" y="1410" type="curve" smooth="yes"/>
      <point x="2388" y="1508"/>
      <point x="2372" y="1567"/>
      <point x="2356" y="1600" type="curve"/>
      <point x="2352" y="1461"/>
      <point x="2204" y="1249"/>
      <point x="1979" y="1249" type="curve" smooth="yes"/>
      <point x="1744" y="1249"/>
      <point x="1626" y="1421"/>
      <point x="1626" y="1585" type="curve" smooth="yes"/>
      <point x="1626" y="1769"/>
      <point x="1776" y="1922"/>
      <point x="1989" y="1922" type="curve" smooth="yes"/>
      <point x="2268" y="1922"/>
      <point x="2401" y="1680"/>
      <point x="2401" y="1410" type="curve" smooth="yes"/>
      <point x="2401" y="726"/>
      <point x="1679" y="-40"/>
      <point x="1093" y="-40" type="curve" smooth="yes"/>
      <point x="634" y="-40"/>
      <point x="460" y="223"/>
      <point x="530" y="598" type="curve" smooth="yes"/>
      <point x="731" y="1691" type="line" smooth="yes"/>
      <point x="735" y="1715"/>
      <point x="740" y="1745"/>
      <point x="740" y="1765" type="curve" smooth="yes"/>
      <point x="740" y="1811"/>
      <point x="713" y="1843"/>
      <point x="651" y="1843" type="curve" smooth="yes"/>
      <point x="385" y="1843"/>
      <point x="181" y="1519"/>
      <point x="52" y="1212" type="curve"/>
      <point x="40" y="1216" type="line"/>
      <point x="216" y="1626"/>
      <point x="438" y="1926"/>
      <point x="872" y="1926" type="curve" smooth="yes"/>
      <point x="1146" y="1926"/>
      <point x="1260" y="1813"/>
      <point x="1260" y="1616" type="curve" smooth="yes"/>
      <point x="1260" y="1554"/>
      <point x="1253" y="1516"/>
      <point x="1245" y="1467" type="curve" smooth="yes"/>
    </contour>
  </outline>
</glyph>
<glyph name="w" format="2">
  <advance width="1797"/>
  <unicode hex="0077"/>
  <outline>
    <contour>
      <point x="460" y="294" type="line" smooth="yes"/>
      <point x="408" y="140"/>
      <point x="410" y="12"/>
      <point x="502" y="12" type="curve" smooth="yes"/>
      <point x="672" y="12"/>
      <point x="807" y="274"/>
      <point x="878" y="574" type="curve"/>
      <point x="884" y="574" type="line"/>
      <point x="808" y="289"/>
      <point x="697" y="-20"/>
      <point x="424" y="-20" type="curve" smooth="yes"/>
      <point x="210" y="-20"/>
      <point x="121" y="104"/>
      <point x="180" y="282" type="curve" smooth="yes"/>
      <point x="362" y="826" type="line" smooth="yes"/>
      <point x="366" y="838"/>
      <point x="368" y="852"/>
      <point x="368" y="862" type="curve" smooth="yes"/>
      <point x="368" y="884"/>
      <point x="354" y="900"/>
      <point x="325" y="900" type="curve" smooth="yes"/>
      <point x="196" y="900"/>
      <point x="99" y="764"/>
      <point x="25" y="592" type="curve"/>
      <point x="20" y="594" type="line"/>
      <point x="106" y="794"/>
      <point x="214" y="940"/>
      <point x="426" y="940" type="curve" smooth="yes"/>
      <point x="550" y="940"/>
      <point x="617" y="890"/>
      <point x="617" y="784" type="curve" smooth="yes"/>
      <point x="617" y="754"/>
      <point x="611" y="730"/>
      <point x="607" y="716" type="curve" smooth="yes"/>
    </contour>
    <contour>
      <point x="960" y="920" type="line"/>
      <point x="1240" y="920" type="line"/>
      <point x="1107" y="359" type="line" smooth="yes"/>
      <point x="1067" y="191"/>
      <point x="1075" y="3"/>
      <point x="1233" y="3" type="curve" smooth="yes"/>
      <point x="1544" y="3"/>
      <point x="1762" y="449"/>
      <point x="1762" y="688" type="curve" smooth="yes"/>
      <point x="1762" y="725"/>
      <point x="1756" y="755"/>
      <point x="1751" y="768" type="curve"/>
      <point x="1743" y="677"/>
      <point x="1669" y="610"/>
      <point x="1558" y="610" type="curve" smooth="yes"/>
      <point x="1448" y="610"/>
      <point x="1388" y="694"/>
      <point x="1388" y="774" type="curve" smooth="yes"/>
      <point x="1388" y="864"/>
      <point x="1466" y="938"/>
      <point x="1565" y="938" type="curve" smooth="yes"/>
      <point x="1681" y="938"/>
      <point x="1768" y="840"/>
      <point x="1768" y="688" type="curve" smooth="yes"/>
      <point x="1768" y="468"/>
      <point x="1568" y="-20"/>
      <point x="1178" y="-20" type="curve" smooth="yes"/>
      <point x="990" y="-20"/>
      <point x="750" y="67"/>
      <point x="839" y="424" type="curve"/>
    </contour>
  </outline>
</glyph>
<glyph name="x" format="2">
  <advance width="2503"/>
  <unicode hex="0078"/>
  <outline>
    <contour>
      <point x="1325" y="990" type="line"/>
      <point x="1571" y="1392"/>
      <point x="1767" y="1926"/>
      <point x="2152" y="1926" type="curve" smooth="yes"/>
      <point x="2443" y="1926"/>
      <point x="2566" y="1704"/>
      <point x="2566" y="1532" type="curve" smooth="yes"/>
      <point x="2566" y="1343"/>
      <point x="2444" y="1204"/>
      <point x="2247" y="1204" type="curve" smooth="yes"/>
      <point x="2042" y="1204"/>
      <point x="1940" y="1377"/>
      <point x="1940" y="1520" type="curve" smooth="yes"/>
      <point x="1940" y="1671"/>
      <point x="2065" y="1826"/>
      <point x="2256" y="1826" type="curve" smooth="yes"/>
      <point x="2385" y="1826"/>
      <point x="2488" y="1744"/>
      <point x="2535" y="1631" type="curve"/>
      <point x="2496" y="1789"/>
      <point x="2356" y="1912"/>
      <point x="2154" y="1912" type="curve" smooth="yes"/>
      <point x="1779" y="1912"/>
      <point x="1592" y="1404"/>
      <point x="1338" y="986" type="curve"/>
    </contour>
    <contour>
      <point x="1237" y="1018" type="line"/>
      <point x="946" y="534"/>
      <point x="717" y="-40"/>
      <point x="332" y="-40" type="curve" smooth="yes"/>
      <point x="41" y="-40"/>
      <point x="-82" y="180"/>
      <point x="-82" y="352" type="curve" smooth="yes"/>
      <point x="-82" y="541"/>
      <point x="40" y="680"/>
      <point x="237" y="680" type="curve" smooth="yes"/>
      <point x="442" y="680"/>
      <point x="545" y="507"/>
      <point x="545" y="364" type="curve" smooth="yes"/>
      <point x="545" y="213"/>
      <point x="422" y="58"/>
      <point x="225" y="58" type="curve" smooth="yes"/>
      <point x="74" y="58"/>
      <point x="-27" y="170"/>
      <point x="-57" y="285" type="curve"/>
      <point x="-20" y="91"/>
      <point x="127" y="-28"/>
      <point x="332" y="-28" type="curve" smooth="yes"/>
      <point x="707" y="-28"/>
      <point x="944" y="551"/>
      <point x="1229" y="1022" type="curve"/>
    </contour>
    <contour>
      <point x="2316" y="446" type="line"/>
      <point x="2182" y="98"/>
      <point x="1976" y="-40"/>
      <point x="1682" y="-40" type="curve" smooth="yes"/>
      <point x="1366" y="-40"/>
      <point x="1239" y="103"/>
      <point x="1155" y="340" type="curve" smooth="yes"/>
      <point x="1038" y="686"/>
      <point x="839" y="1451"/>
      <point x="733" y="1745" type="curve" smooth="yes"/>
      <point x="717" y="1791"/>
      <point x="688" y="1843"/>
      <point x="608" y="1843" type="curve" smooth="yes"/>
      <point x="482" y="1843"/>
      <point x="347" y="1688"/>
      <point x="245" y="1428" type="curve"/>
      <point x="235" y="1430" type="line"/>
      <point x="366" y="1778"/>
      <point x="547" y="1934"/>
      <point x="883" y="1934" type="curve" smooth="yes"/>
      <point x="1199" y="1934"/>
      <point x="1308" y="1790"/>
      <point x="1392" y="1553" type="curve" smooth="yes"/>
      <point x="1513" y="1191"/>
      <point x="1679" y="549"/>
      <point x="1823" y="151" type="curve" smooth="yes"/>
      <point x="1839" y="105"/>
      <point x="1888" y="51"/>
      <point x="1952" y="51" type="curve" smooth="yes"/>
      <point x="2067" y="51"/>
      <point x="2212" y="198"/>
      <point x="2308" y="448" type="curve"/>
    </contour>
  </outline>
</glyph>
<glyph name="y" format="2">
  <advance width="2583"/>
  <unicode hex="0079"/>
  <outline>
    <contour>
      <point x="1413" y="-418" type="curve"/>
      <point x="1066" y="170"/>
      <point x="747" y="1439"/>
      <point x="637" y="1733" type="curve" smooth="yes"/>
      <point x="621" y="1779"/>
      <point x="590" y="1835"/>
      <point x="516" y="1835" type="curve" smooth="yes"/>
      <point x="395" y="1835"/>
      <point x="230" y="1662"/>
      <point x="146" y="1418" type="curve"/>
      <point x="136" y="1422" type="line"/>
      <point x="272" y="1790"/>
      <point x="508" y="1926"/>
      <point x="803" y="1926" type="curve" smooth="yes"/>
      <point x="1084" y="1926"/>
      <point x="1225" y="1778"/>
      <point x="1297" y="1541" type="curve" smooth="yes"/>
      <point x="1409" y="1173"/>
      <point x="1557" y="492"/>
      <point x="1833" y="86" type="curve"/>
      <point x="1704" y="-90"/>
      <point x="1554" y="-266"/>
    </contour>
    <contour>
      <point x="453" y="-1064" type="curve" smooth="yes"/>
      <point x="97" y="-1064"/>
      <point x="-82" y="-803"/>
      <point x="-82" y="-557" type="curve" smooth="yes"/>
      <point x="-82" y="-360"/>
      <point x="57" y="-184"/>
      <point x="254" y="-184" type="curve" smooth="yes"/>
      <point x="418" y="-184"/>
      <point x="565" y="-291"/>
      <point x="565" y="-488" type="curve" smooth="yes"/>
      <point x="565" y="-665"/>
      <point x="432" y="-790"/>
      <point x="258" y="-790" type="curve" smooth="yes"/>
      <point x="86" y="-790"/>
      <point x="-34" y="-698"/>
      <point x="-67" y="-579" type="curve"/>
      <point x="-61" y="-808"/>
      <point x="113" y="-1052"/>
      <point x="453" y="-1052" type="curve" smooth="yes"/>
      <point x="1219" y="-1052"/>
      <point x="2521" y="953"/>
      <point x="2521" y="1479" type="curve" smooth="yes"/>
      <point x="2521" y="1551"/>
      <point x="2501" y="1609"/>
      <point x="2476" y="1646" type="curve"/>
      <point x="2482" y="1402"/>
      <point x="2317" y="1294"/>
      <point x="2149" y="1294" type="curve" smooth="yes"/>
      <point x="1924" y="1294"/>
      <point x="1803" y="1467"/>
      <point x="1803" y="1610" type="curve" smooth="yes"/>
      <point x="1803" y="1773"/>
      <point x="1932" y="1926"/>
      <point x="2145" y="1926" type="curve" smooth="yes"/>
      <point x="2415" y="1926"/>
      <point x="2533" y="1688"/>
      <point x="2533" y="1479" type="curve" smooth="yes"/>
      <point x="2533" y="947"/>
      <point x="1229" y="-1064"/>
    </contour>
  </outline>
</glyph>
<glyph name="z" format="2">
  <advance width="906"/>
  <unicode hex="007A"/>
  <outline>
    <contour>
      <point x="50" y="470" type="line"/>
      <point x="158" y="930" type="line"/>
      <point x="266" y="870"/>
      <point x="386" y="852"/>
      <point x="508" y="852" type="curve" smooth="yes"/>
      <point x="624" y="852"/>
      <point x="802" y="868"/>
      <point x="876" y="927" type="curve"/>
      <point x="880" y="922" type="line"/>
      <point x="710" y="782"/>
      <point x="505" y="600"/>
      <point x="345" y="600" type="curve" smooth="yes"/>
      <point x="257" y="600"/>
      <point x="158" y="631"/>
      <point x="106" y="676" type="curve"/>
      <point x="56" y="470" type="line"/>
    </contour>
    <contour>
      <point x="-31" y="-1" type="line"/>
      <point x="-56" y="-16" type="line"/>
      <point x="870" y="921" type="line"/>
      <point x="880" y="922" type="line"/>
    </contour>
    <contour>
      <point x="882" y="356" type="curve"/>
      <point x="862" y="293"/>
      <point x="813" y="242"/>
      <point x="733" y="242" type="curve" smooth="yes"/>
      <point x="664" y="242"/>
      <point x="594" y="302"/>
      <point x="594" y="382" type="curve" smooth="yes"/>
      <point x="594" y="472"/>
      <point x="668" y="524"/>
      <point x="738" y="524" type="curve" smooth="yes"/>
      <point x="818" y="524"/>
      <point x="888" y="467"/>
      <point x="888" y="365" type="curve" smooth="yes"/>
      <point x="888" y="245"/>
      <point x="758" y="-20"/>
      <point x="534" y="-20" type="curve" smooth="yes"/>
      <point x="392" y="-20"/>
      <point x="326" y="78"/>
      <point x="194" y="78" type="curve" smooth="yes"/>
      <point x="98" y="78"/>
      <point x="13" y="44"/>
      <point x="-51" y="-20" type="curve"/>
      <point x="-55" y="-16" type="line"/>
      <point x="83" y="104"/>
      <point x="274" y="270"/>
      <point x="414" y="270" type="curve" smooth="yes"/>
      <point x="552" y="270"/>
      <point x="565" y="154"/>
      <point x="719" y="154" type="curve" smooth="yes"/>
      <point x="819" y="154"/>
      <point x="872" y="250"/>
    </contour>
  </outline>
</glyph>
<glyph name="braceleft" format="2">
  <advance width="1318"/>
  <unicode hex="007B"/>
  <outline>
    <contour>
      <point x="1769" y="3194" type="curve"/>
      <point x="1769" y="3147" type="line"/>
      <point x="1454" y="3147"/>
      <point x="1219" y="2886"/>
      <point x="1219" y="2528" type="curve" smooth="yes"/>
      <point x="1219" y="2298"/>
      <point x="1265" y="2176"/>
      <point x="1265" y="1889" type="curve" smooth="yes"/>
      <point x="1265" y="1488"/>
      <point x="713" y="1320"/>
      <point x="348" y="1280" type="curve"/>
      <point x="348" y="1315" type="line"/>
      <point x="470" y="1355"/>
      <point x="717" y="1460"/>
      <point x="717" y="1668" type="curve" smooth="yes"/>
      <point x="717" y="1906"/>
      <point x="622" y="1982"/>
      <point x="622" y="2338" type="curve" smooth="yes"/>
      <point x="622" y="2867"/>
      <point x="1093" y="3194"/>
    </contour>
    <contour>
      <point x="909" y="-614" type="line"/>
      <point x="315" y="-614"/>
      <point x="20" y="-487"/>
      <point x="20" y="-102" type="curve" smooth="yes"/>
      <point x="20" y="398"/>
      <point x="552" y="746"/>
      <point x="552" y="1004" type="curve" smooth="yes"/>
      <point x="552" y="1172"/>
      <point x="470" y="1228"/>
      <point x="348" y="1268" type="curve"/>
      <point x="348" y="1302" type="line"/>
      <point x="713" y="1262"/>
      <point x="991" y="1180"/>
      <point x="991" y="861" type="curve" smooth="yes"/>
      <point x="991" y="451"/>
      <point x="607" y="124"/>
      <point x="607" y="-188" type="curve" smooth="yes"/>
      <point x="607" y="-385"/>
      <point x="655" y="-567"/>
      <point x="909" y="-567" type="curve"/>
    </contour>
  </outline>
</glyph>
<glyph name="cent" format="2">
  <advance width="987"/>
  <unicode hex="00A2"/>
  <outline>
    <contour>
      <point x="697" y="1110" type="line"/>
      <point x="357" y="-170" type="line"/>
      <point x="351" y="-170" type="line"/>
      <point x="691" y="1110" type="line"/>
    </contour>
    <component base="c"/>
  </outline>
</glyph>
<glyph name="logicalnot" format="2">
  <advance width="1990"/>
  <unicode hex="00AC"/>
  <outline>
    <contour>
      <point x="2098" y="2506" type="line"/>
      <point x="614" y="2506" type="line"/>
      <point x="614" y="2520" type="line"/>
      <point x="2114" y="2520" type="line"/>
      <point x="1930" y="1692" type="line"/>
      <point x="1916" y="1692" type="line"/>
    </contour>
  </outline>
</glyph>
<glyph name="acute" format="2">
  <advance width="809"/>
  <unicode hex="00B4"/>
  <outline>
    <contour>
      <point x="920" y="1391" type="curve" smooth="yes"/>
      <point x="459" y="1438" type="line"/>
      <point x="457" y="1442" type="line"/>
      <point x="900" y="1606" type="line" smooth="yes"/>
      <point x="977" y="1637"/>
      <point x="1050" y="1568"/>
      <point x="1050" y="1500" type="curve" smooth="yes"/>
      <point x="1050" y="1432"/>
      <point x="988" y="1380"/>
    </contour>
  </outline>
</glyph>
<glyph name="cedilla" format="2">
  <advance width="1099"/>
  <unicode hex="00B8"/>
  <outline>
    <contour>
      <point x="474" y="-158" type="line"/>
      <point x="714" y="82" type="line"/>
      <point x="720" y="82" type="line"/>
      <point x="480" y="-158" type="line"/>
    </contour>
    <contour>
      <point x="474" y="-158" type="curve"/>
      <point x="557" y="-78" type="line"/>
      <point x="729" y="-78"/>
      <point x="868" y="-110"/>
      <point x="868" y="-220" type="curve" smooth="yes"/>
      <point x="868" y="-360"/>
      <point x="664" y="-440"/>
      <point x="432" y="-440" type="curve"/>
      <point x="432" y="-434" type="line"/>
      <point x="550" y="-434"/>
      <point x="638" y="-368"/>
      <point x="638" y="-260" type="curve" smooth="yes"/>
      <point x="638" y="-184"/>
      <point x="584" y="-158"/>
    </contour>
  </outline>
</glyph>
<glyph name="AE" format="2">
  <advance width="4218"/>
  <unicode hex="00C6"/>
  <outline>
    <contour>
      <point x="2925" y="3072" type="line"/>
      <point x="4604" y="3072" type="line"/>
      <point x="4407" y="2232" type="line"/>
      <point x="4395" y="2232" type="line"/>
      <point x="4436" y="2670"/>
      <point x="4224" y="3060"/>
      <point x="3744" y="3060" type="curve" smooth="yes"/>
      <point x="2925" y="3060" type="line"/>
    </contour>
    <contour>
      <point x="3084" y="1586" type="curve" smooth="yes"/>
      <point x="2814" y="1586" type="line"/>
      <point x="2814" y="1594" type="line"/>
      <point x="3084" y="1594" type="line" smooth="yes"/>
      <point x="3318" y="1594"/>
      <point x="3602" y="1807"/>
      <point x="3725" y="2081" type="curve"/>
      <point x="3737" y="2081" type="line"/>
      <point x="3506" y="1077" type="line"/>
      <point x="3494" y="1077" type="line"/>
      <point x="3494" y="1351"/>
      <point x="3318" y="1586"/>
    </contour>
    <contour>
      <point x="3933" y="0" type="line"/>
      <point x="1638" y="0" type="line"/>
      <point x="1638" y="12" type="line"/>
      <point x="3031" y="12" type="line" smooth="yes"/>
      <point x="3593" y="12"/>
      <point x="3953" y="402"/>
      <point x="4133" y="922" type="curve"/>
      <point x="4145" y="922" type="line"/>
    </contour>
    <contour>
      <point x="2700" y="3072" type="line"/>
      <point x="3334" y="3072" type="line"/>
      <point x="2622" y="0" type="line"/>
      <point x="1986" y="0" type="line"/>
    </contour>
    <contour>
      <point x="1086" y="1008" type="line"/>
      <point x="2274" y="1008" type="line"/>
      <point x="2274" y="1000" type="line"/>
      <point x="1086" y="1000" type="line"/>
    </contour>
    <contour>
      <point x="2686" y="3072" type="line"/>
      <point x="2704" y="3072" type="line"/>
      <point x="308" y="0" type="line"/>
      <point x="290" y="0" type="line"/>
    </contour>
    <contour>
      <point x="-102" y="12" type="line"/>
      <point x="798" y="12" type="line"/>
      <point x="798" y="0" type="line"/>
      <point x="-102" y="0" type="line"/>
    </contour>
  </outline>
</glyph>
<glyph name="germandbls" format="2">
  <advance width="1531"/>
  <unicode hex="00DF"/>
  <outline>
    <contour>
      <point x="1472" y="430" type="curve" smooth="yes"/>
      <point x="1472" y="100"/>
      <point x="1174" y="-20"/>
      <point x="942" y="-20" type="curve" smooth="yes"/>
      <point x="744" y="-20"/>
      <point x="656" y="118"/>
      <point x="656" y="272" type="curve" smooth="yes"/>
      <point x="656" y="394"/>
      <point x="730" y="482"/>
      <point x="830" y="482" type="curve" smooth="yes"/>
      <point x="920" y="482"/>
      <point x="988" y="422"/>
      <point x="988" y="330" type="curve" smooth="yes"/>
      <point x="988" y="246"/>
      <point x="896" y="180"/>
      <point x="818" y="180" type="curve" smooth="yes"/>
      <point x="737" y="180"/>
      <point x="679" y="229"/>
      <point x="663" y="287" type="curve"/>
      <point x="653" y="123"/>
      <point x="750" y="-10"/>
      <point x="922" y="-10" type="curve" smooth="yes"/>
      <point x="1100" y="-10"/>
      <point x="1160" y="252"/>
      <point x="1160" y="440" type="curve" smooth="yes"/>
      <point x="1160" y="628"/>
      <point x="1084" y="808"/>
      <point x="906" y="808" type="curve"/>
      <point x="906" y="812" type="line"/>
      <point x="1268" y="812"/>
      <point x="1472" y="690"/>
    </contour>
    <contour>
      <point x="-50" y="6" type="line"/>
      <point x="610" y="6" type="line"/>
      <point x="610" y="0" type="line"/>
      <point x="-50" y="0" type="line"/>
    </contour>
    <contour>
      <point x="906" y="810" type="curve"/>
      <point x="906" y="814" type="line"/>
      <point x="1164" y="814"/>
      <point x="1280" y="1064"/>
      <point x="1280" y="1232" type="curve" smooth="yes"/>
      <point x="1280" y="1376"/>
      <point x="1224" y="1514"/>
      <point x="1076" y="1514" type="curve" smooth="yes"/>
      <point x="788" y="1514"/>
      <point x="712" y="1232"/>
      <point x="650" y="962" type="curve" smooth="yes"/>
      <point x="430" y="0" type="line"/>
      <point x="130" y="0" type="line"/>
      <point x="355" y="982" type="line" smooth="yes"/>
      <point x="435" y="1339"/>
      <point x="690" y="1520"/>
      <point x="1086" y="1520" type="curve" smooth="yes"/>
      <point x="1352" y="1520"/>
      <point x="1597" y="1428"/>
      <point x="1597" y="1202" type="curve" smooth="yes"/>
      <point x="1597" y="962"/>
      <point x="1308" y="810"/>
    </contour>
  </outline>
</glyph>
<glyph name="eth" format="2">
  <advance width="1219"/>
  <unicode hex="00F0"/>
  <outline>
    <contour>
      <point x="470" y="1260" type="line"/>
      <point x="1350" y="1260" type="line"/>
      <point x="1350" y="1254" type="line"/>
      <point x="470" y="1254" type="line"/>
    </contour>
    <contour>
      <point x="1214" y="780" type="curve" smooth="yes"/>
      <point x="1214" y="360"/>
      <point x="874" y="-20"/>
      <point x="522" y="-20" type="curve" smooth="yes"/>
      <point x="250" y="-20"/>
      <point x="80" y="100"/>
      <point x="80" y="360" type="curve" smooth="yes"/>
      <point x="80" y="760"/>
      <point x="436" y="980"/>
      <point x="678" y="980" type="curve" smooth="yes"/>
      <point x="853" y="980"/>
      <point x="884" y="869"/>
      <point x="874" y="635" type="curve"/>
      <point x="868" y="740" type="line"/>
      <point x="868" y="850"/>
      <point x="832" y="957"/>
      <point x="742" y="957" type="curve" smooth="yes"/>
      <point x="554" y="957"/>
      <point x="387" y="518"/>
      <point x="387" y="240" type="curve" smooth="yes"/>
      <point x="387" y="102"/>
      <point x="411" y="-14"/>
      <point x="519" y="-14" type="curve" smooth="yes"/>
      <point x="687" y="-14"/>
      <point x="868" y="462"/>
      <point x="868" y="740" type="curve"/>
      <point x="870" y="739" type="line"/>
      <point x="881" y="1180"/>
      <point x="867" y="1514"/>
      <point x="480" y="1514" type="curve"/>
      <point x="480" y="1520" type="line"/>
      <point x="976" y="1520"/>
      <point x="1214" y="1196"/>
    </contour>
  </outline>
</glyph>
<glyph name="thorn" format="2">
  <advance width="2504"/>
  <unicode hex="00FE"/>
  <outline>
    <contour>
      <point x="900" y="598" type="curve" smooth="yes"/>
      <point x="900" y="339"/>
      <point x="965" y="92"/>
      <point x="1132" y="92" type="curve" smooth="yes"/>
      <point x="1415" y="92"/>
      <point x="1759" y="824"/>
      <point x="1759" y="1372" type="curve" smooth="yes"/>
      <point x="1759" y="1634"/>
      <point x="1675" y="1802"/>
      <point x="1528" y="1802" type="curve" smooth="yes"/>
      <point x="1172" y="1802"/>
      <point x="900" y="1044"/>
    </contour>
    <contour>
      <point x="890" y="598" type="curve" smooth="yes"/>
      <point x="890" y="1040"/>
      <point x="1154" y="1926"/>
      <point x="1732" y="1926" type="curve" smooth="yes"/>
      <point x="2014" y="1926"/>
      <point x="2390" y="1760"/>
      <point x="2390" y="1228" type="curve" smooth="yes"/>
      <point x="2390" y="408"/>
      <point x="1741" y="-38"/>
      <point x="1315" y="-38" type="curve" smooth="yes"/>
      <point x="1003" y="-38"/>
      <point x="890" y="222"/>
    </contour>
    <contour>
      <point x="-349" y="-1012" type="line"/>
      <point x="778" y="-1012" type="line"/>
      <point x="778" y="-1024" type="line"/>
      <point x="-349" y="-1024" type="line"/>
    </contour>
    <contour>
      <point x="856" y="3060" type="line"/>
      <point x="565" y="3060" type="line"/>
      <point x="565" y="3072" type="line"/>
      <point x="1434" y="3072" type="line"/>
      <point x="1000" y="1180" type="line"/>
      <point x="930" y="918" type="line"/>
      <point x="899" y="711" type="line"/>
      <point x="492" y="-1024" type="line"/>
      <point x="-81" y="-1024" type="line"/>
    </contour>
  </outline>
</glyph>
<glyph name="kgreenlandic" format="2">
  <advance width="1228"/>
  <unicode hex="0138"/>
  <outline>
    <contour>
      <point x="1184" y="326" type="line"/>
      <point x="1108" y="126"/>
      <point x="980" y="-20"/>
      <point x="798" y="-20" type="curve" smooth="yes"/>
      <point x="674" y="-20"/>
      <point x="597" y="26"/>
      <point x="597" y="146" type="curve" smooth="yes"/>
      <point x="597" y="156"/>
      <point x="599" y="178"/>
      <point x="601" y="190" type="curve" smooth="yes"/>
      <point x="620" y="280" type="line" smooth="yes"/>
      <point x="645" y="396"/>
      <point x="718" y="561"/>
      <point x="610" y="561" type="curve" smooth="yes"/>
      <point x="508" y="561"/>
      <point x="475" y="458"/>
      <point x="458" y="380" type="curve"/>
      <point x="454" y="380" type="line"/>
      <point x="492" y="550"/>
      <point x="560" y="583"/>
      <point x="672" y="583" type="curve" smooth="yes"/>
      <point x="810" y="583"/>
      <point x="944" y="502"/>
      <point x="884" y="242" type="curve" smooth="yes"/>
      <point x="845" y="62" type="line" smooth="yes"/>
      <point x="845" y="58"/>
      <point x="843" y="48"/>
      <point x="843" y="44" type="curve" smooth="yes"/>
      <point x="843" y="22"/>
      <point x="857" y="12"/>
      <point x="883" y="12" type="curve" smooth="yes"/>
      <point x="995" y="12"/>
      <point x="1116" y="154"/>
      <point x="1180" y="328" type="curve"/>
    </contour>
    <contour>
      <point x="499" y="499" type="curve"/>
      <point x="503" y="503" type="line"/>
      <point x="510" y="497"/>
      <point x="527" y="490"/>
      <point x="549" y="490" type="curve" smooth="yes"/>
      <point x="628" y="490"/>
      <point x="673" y="594"/>
      <point x="725" y="722" type="curve" smooth="yes"/>
      <point x="781" y="858"/>
      <point x="864" y="940"/>
      <point x="974" y="940" type="curve" smooth="yes"/>
      <point x="1084" y="940"/>
      <point x="1179" y="862"/>
      <point x="1179" y="738" type="curve" smooth="yes"/>
      <point x="1179" y="638"/>
      <point x="1112" y="578"/>
      <point x="1032" y="578" type="curve" smooth="yes"/>
      <point x="952" y="578"/>
      <point x="892" y="642"/>
      <point x="892" y="718" type="curve" smooth="yes"/>
      <point x="892" y="794"/>
      <point x="957" y="852"/>
      <point x="1033" y="852" type="curve" smooth="yes"/>
      <point x="1103" y="852"/>
      <point x="1154" y="809"/>
      <point x="1171" y="758" type="curve"/>
      <point x="1161" y="861"/>
      <point x="1081" y="935"/>
      <point x="974" y="935" type="curve" smooth="yes"/>
      <point x="871" y="935"/>
      <point x="788" y="860"/>
      <point x="730" y="718" type="curve" smooth="yes"/>
      <point x="675" y="582"/>
      <point x="630" y="484"/>
      <point x="549" y="484" type="curve" smooth="yes"/>
      <point x="525" y="484"/>
      <point x="506" y="493"/>
    </contour>
    <contour>
      <point x="301" y="914" type="line"/>
      <point x="123" y="914" type="line"/>
      <point x="123" y="919" type="line"/>
      <point x="584" y="919" type="line"/>
      <point x="370" y="0" type="line"/>
      <point x="90" y="0" type="line"/>
    </contour>
  </outline>
</glyph>
<glyph name="Lslash" format="2">
  <advance width="1213"/>
  <unicode hex="0141"/>
  <outline>
    <contour>
      <point x="80" y="720" type="line"/>
      <point x="870" y="1160" type="line"/>
      <point x="870" y="1154" type="line"/>
      <point x="80" y="714" type="line"/>
    </contour>
    <component base="L"/>
  </outline>
</glyph>
<glyph name="OE" format="2">
  <advance width="2028"/>
  <unicode hex="0152"/>
  <outline>
    <contour>
      <point x="1028" y="1500" type="curve"/>
      <point x="1028" y="1477" type="line"/>
      <point x="680" y="1477"/>
      <point x="453" y="814"/>
      <point x="453" y="350" type="curve" smooth="yes"/>
      <point x="453" y="156"/>
      <point x="512" y="23"/>
      <point x="690" y="23" type="curve"/>
      <point x="690" y="0" type="line"/>
      <point x="384" y="0"/>
      <point x="123" y="144"/>
      <point x="123" y="500" type="curve" smooth="yes"/>
      <point x="123" y="1086"/>
      <point x="562" y="1500"/>
    </contour>
    <component base="E" xOffset="785"/>
  </outline>
</glyph>
<glyph name="uni0212" format="2">
  <advance width="3143"/>
  <unicode hex="0212"/>
  <outline>
    <contour>
      <point x="2456" y="3358" type="line"/>
      <point x="2486" y="3534"/>
      <point x="2280" y="3621"/>
      <point x="2058" y="3621" type="curve" smooth="yes"/>
      <point x="1836" y="3621"/>
      <point x="1550" y="3558"/>
      <point x="1497" y="3358" type="curve"/>
      <point x="1485" y="3358" type="line"/>
      <point x="1525" y="3608"/>
      <point x="1669" y="4010"/>
      <point x="2099" y="4010" type="curve" smooth="yes"/>
      <point x="2508" y="4010"/>
      <point x="2508" y="3608"/>
      <point x="2468" y="3358" type="curve"/>
    </contour>
    <component base="R"/>
  </outline>
</glyph>
<glyph name="uni0237" format="2">
  <advance width="598"/>
  <unicode hex="0237"/>
  <outline>
    <contour>
      <point x="-389" y="-342" type="curve"/>
      <point x="-366" y="-427"/>
      <point x="-265" y="-512"/>
      <point x="-144" y="-512" type="curve" smooth="yes"/>
      <point x="46" y="-512"/>
      <point x="34" y="-200"/>
      <point x="90" y="40" type="curve" smooth="yes"/>
      <point x="294" y="914" type="line"/>
      <point x="106" y="914" type="line"/>
      <point x="106" y="920" type="line"/>
      <point x="571" y="920" type="line"/>
      <point x="375" y="-24" type="line" smooth="yes"/>
      <point x="323" y="-274"/>
      <point x="126" y="-520"/>
      <point x="-134" y="-520" type="curve" smooth="yes"/>
      <point x="-296" y="-520"/>
      <point x="-410" y="-396"/>
      <point x="-410" y="-292" type="curve" smooth="yes"/>
      <point x="-410" y="-190"/>
      <point x="-326" y="-118"/>
      <point x="-236" y="-118" type="curve" smooth="yes"/>
      <point x="-156" y="-118"/>
      <point x="-84" y="-176"/>
      <point x="-84" y="-260" type="curve" smooth="yes"/>
      <point x="-84" y="-354"/>
      <point x="-164" y="-419"/>
      <point x="-257" y="-419" type="curve" smooth="yes"/>
      <point x="-325" y="-419"/>
      <point x="-366" y="-381"/>
    </contour>
  </outline>
</glyph>
<glyph name="circumflex" format="2">
  <advance width="869"/>
  <unicode hex="02C6"/>
  <outline>
    <contour>
      <point x="694" y="1400" type="line"/>
      <point x="322" y="1268" type="line"/>
      <point x="320" y="1270" type="line"/>
      <point x="614" y="1540" type="line"/>
      <point x="784" y="1540" type="line"/>
      <point x="990" y="1270" type="line"/>
      <point x="988" y="1268" type="line"/>
    </contour>
  </outline>
</glyph>
<glyph name="breve" format="2">
  <advance width="1228"/>
  <unicode hex="02D8"/>
  <outline>
    <contour>
      <point x="668" y="3108" type="line"/>
      <point x="638" y="2932"/>
      <point x="843" y="2847"/>
      <point x="1065" y="2847" type="curve" smooth="yes"/>
      <point x="1287" y="2847"/>
      <point x="1573" y="2908"/>
      <point x="1626" y="3108" type="curve"/>
      <point x="1638" y="3108" type="line"/>
      <point x="1598" y="2858"/>
      <point x="1454" y="2457"/>
      <point x="1024" y="2457" type="curve" smooth="yes"/>
      <point x="635" y="2457"/>
      <point x="616" y="2858"/>
      <point x="656" y="3108" type="curve"/>
    </contour>
  </outline>
</glyph>
<glyph name="ogonek" format="2">
  <advance width="2252"/>
  <unicode hex="02DB"/>
  <outline>
    <contour>
      <point x="1446" y="-462" type="line"/>
      <point x="1384" y="-576"/>
      <point x="1225" y="-803"/>
      <point x="873" y="-803" type="curve" smooth="yes"/>
      <point x="624" y="-803"/>
      <point x="406" y="-718"/>
      <point x="406" y="-493" type="curve" smooth="yes"/>
      <point x="406" y="-165"/>
      <point x="934" y="74"/>
      <point x="1266" y="176" type="curve"/>
      <point x="1270" y="170" type="line"/>
      <point x="1144" y="92"/>
      <point x="964" y="-152"/>
      <point x="964" y="-451" type="curve" smooth="yes"/>
      <point x="964" y="-623"/>
      <point x="1020" y="-721"/>
      <point x="1108" y="-721" type="curve" smooth="yes"/>
      <point x="1262" y="-721"/>
      <point x="1384" y="-554"/>
      <point x="1436" y="-458" type="curve"/>
    </contour>
  </outline>
</glyph>
<glyph name="tilde" format="2">
  <advance width="895"/>
  <unicode hex="02DC"/>
  <outline>
    <contour>
      <point x="447" y="1308" type="curve" smooth="yes"/>
      <point x="381" y="1308"/>
      <point x="336" y="1284"/>
      <point x="296" y="1200" type="curve"/>
      <point x="290" y="1200" type="line"/>
      <point x="330" y="1370"/>
      <point x="420" y="1484"/>
      <point x="548" y="1484" type="curve" smooth="yes"/>
      <point x="688" y="1484"/>
      <point x="777" y="1326"/>
      <point x="889" y="1326" type="curve" smooth="yes"/>
      <point x="955" y="1326"/>
      <point x="1000" y="1350"/>
      <point x="1040" y="1434" type="curve"/>
      <point x="1046" y="1434" type="line"/>
      <point x="1006" y="1244"/>
      <point x="936" y="1150"/>
      <point x="808" y="1150" type="curve" smooth="yes"/>
      <point x="654" y="1150"/>
      <point x="573" y="1308"/>
    </contour>
  </outline>
</glyph>
<glyph name="pi" format="2">
  <advance width="1281"/>
  <unicode hex="03C0"/>
  <outline>
    <contour>
      <point x="198" y="-20" type="curve" smooth="yes"/>
      <point x="106" y="-20"/>
      <point x="50" y="36"/>
      <point x="50" y="106" type="curve" smooth="yes"/>
      <point x="50" y="312"/>
      <point x="326" y="189"/>
      <point x="440" y="578" type="curve" smooth="yes"/>
      <point x="534" y="900" type="line"/>
      <point x="646" y="900" type="line"/>
      <point x="536" y="486" type="line" smooth="yes"/>
      <point x="458" y="190"/>
      <point x="404" y="-20"/>
    </contour>
    <contour>
      <point x="1172" y="206" type="line"/>
      <point x="1116" y="66"/>
      <point x="1022" y="-20"/>
      <point x="866" y="-20" type="curve" smooth="yes"/>
      <point x="732" y="-20"/>
      <point x="640" y="82"/>
      <point x="672" y="212" type="curve" smooth="yes"/>
      <point x="832" y="840" type="line"/>
      <point x="1132" y="840" type="line"/>
      <point x="957" y="193" type="line" smooth="yes"/>
      <point x="937" y="119"/>
      <point x="969" y="92"/>
      <point x="1017" y="92" type="curve" smooth="yes"/>
      <point x="1095" y="92"/>
      <point x="1130" y="138"/>
      <point x="1168" y="208" type="curve"/>
    </contour>
    <contour>
      <point x="1312" y="920" type="line"/>
      <point x="1227" y="640" type="line"/>
      <point x="153" y="640" type="line"/>
      <point x="117" y="490" type="line"/>
      <point x="111" y="490" type="line"/>
      <point x="214" y="920" type="line"/>
    </contour>
  </outline>
</glyph>
<glyph name="uni203D" format="2">
  <advance width="2456"/>
  <unicode hex="203D"/>
  <outline>
    <contour>
      <point x="1794" y="2228" type="curve" smooth="yes"/>
      <point x="1720" y="1792"/>
      <point x="1311" y="1609"/>
      <point x="1147" y="995" type="curve"/>
      <point x="1139" y="995" type="line"/>
      <point x="1261" y="1609"/>
      <point x="1187" y="1773"/>
      <point x="1187" y="2085" type="curve" smooth="yes"/>
      <point x="1187" y="2356"/>
      <point x="1270" y="2552"/>
      <point x="1511" y="2552" type="curve" smooth="yes"/>
      <point x="1696" y="2552"/>
      <point x="1826" y="2416"/>
    </contour>
    <contour>
      <point x="2064" y="2498" type="curve" smooth="yes"/>
      <point x="2064" y="2802"/>
      <point x="1946" y="3094"/>
      <point x="1561" y="3094" type="curve" smooth="yes"/>
      <point x="1076" y="3094"/>
      <point x="612" y="2761"/>
      <point x="524" y="2480" type="curve"/>
      <point x="571" y="2538"/>
      <point x="684" y="2626"/>
      <point x="806" y="2626" type="curve" smooth="yes"/>
      <point x="945" y="2626"/>
      <point x="1102" y="2519"/>
      <point x="1102" y="2324" type="curve" smooth="yes"/>
      <point x="1102" y="2099"/>
      <point x="909" y="2003"/>
      <point x="766" y="2003" type="curve" smooth="yes"/>
      <point x="603" y="2003"/>
      <point x="471" y="2129"/>
      <point x="471" y="2338" type="curve" smooth="yes"/>
      <point x="471" y="2715"/>
      <point x="1021" y="3112"/>
      <point x="1602" y="3112" type="curve" smooth="yes"/>
      <point x="2138" y="3112"/>
      <point x="2642" y="2928"/>
      <point x="2642" y="2416" type="curve" smooth="yes"/>
      <point x="2642" y="1801"/>
      <point x="1913" y="1372"/>
      <point x="1272" y="1372" type="curve"/>
      <point x="1272" y="1380" type="line"/>
      <point x="1692" y="1506"/>
      <point x="2064" y="1994"/>
    </contour>
    <component base="period" xOffset="549"/>
  </outline>
</glyph>
<glyph name="Euro" format="2">
  <advance width="3133"/>
  <unicode hex="20AC"/>
  <outline>
    <contour>
      <point x="3240" y="2582" type="curve"/>
      <point x="3191" y="2789"/>
      <point x="2902" y="3092"/>
      <point x="2478" y="3092" type="curve" smooth="yes"/>
      <point x="1704" y="3092"/>
      <point x="1266" y="1778"/>
      <point x="1266" y="840" type="curve" smooth="yes"/>
      <point x="1266" y="374"/>
      <point x="1458" y="-12"/>
      <point x="1822" y="-12" type="curve" smooth="yes"/>
      <point x="2215" y="-12"/>
      <point x="2678" y="334"/>
      <point x="2826" y="730" type="curve"/>
      <point x="2838" y="730" type="line"/>
      <point x="2690" y="332"/>
      <point x="2229" y="-40"/>
      <point x="1733" y="-40" type="curve" smooth="yes"/>
      <point x="1196" y="-40"/>
      <point x="589" y="286"/>
      <point x="589" y="1126" type="curve" smooth="yes"/>
      <point x="589" y="2252"/>
      <point x="1445" y="3112"/>
      <point x="2433" y="3112" type="curve" smooth="yes"/>
      <point x="2933" y="3112"/>
      <point x="3277" y="2736"/>
      <point x="3277" y="2462" type="curve" smooth="yes"/>
      <point x="3277" y="2233"/>
      <point x="3104" y="2106"/>
      <point x="2941" y="2106" type="curve" smooth="yes"/>
      <point x="2798" y="2106"/>
      <point x="2605" y="2212"/>
      <point x="2605" y="2437" type="curve" smooth="yes"/>
      <point x="2605" y="2642"/>
      <point x="2797" y="2765"/>
      <point x="2956" y="2765" type="curve" smooth="yes"/>
      <point x="3093" y="2765"/>
      <point x="3199" y="2666"/>
    </contour>
    <component base="equal" xOffset="-122" yOffset="-286"/>
  </outline>
</glyph>
<glyph name="uniFB01" format="2">
  <advance width="1376"/>
  <unicode hex="FB01"/>
  <outline>
    <contour>
      <point x="1337" y="326" type="line"/>
      <point x="1261" y="126"/>
      <point x="1123" y="-20"/>
      <point x="931" y="-20" type="curve" smooth="yes"/>
      <point x="807" y="-20"/>
      <point x="744" y="26"/>
      <point x="744" y="146" type="curve" smooth="yes"/>
      <point x="744" y="156"/>
      <point x="745" y="178"/>
      <point x="748" y="190" type="curve" smooth="yes"/>
      <point x="922" y="914" type="line"/>
      <point x="139" y="914" type="line"/>
      <point x="139" y="920" type="line"/>
      <point x="1203" y="920" type="line"/>
      <point x="1002" y="94" type="line" smooth="yes"/>
      <point x="1000" y="82"/>
      <point x="998" y="68"/>
      <point x="998" y="58" type="curve" smooth="yes"/>
      <point x="998" y="36"/>
      <point x="1008" y="15"/>
      <point x="1034" y="15" type="curve" smooth="yes"/>
      <point x="1139" y="15"/>
      <point x="1264" y="142"/>
      <point x="1333" y="328" type="curve"/>
    </contour>
    <contour>
      <point x="1223" y="1348" type="curve"/>
      <point x="1198" y="1436"/>
      <point x="1094" y="1512"/>
      <point x="943" y="1512" type="curve" smooth="yes"/>
      <point x="763" y="1512"/>
      <point x="653" y="1333"/>
      <point x="608" y="1080" type="curve" smooth="yes"/>
      <point x="411" y="-24" type="line" smooth="yes"/>
      <point x="354" y="-344"/>
      <point x="135" y="-520"/>
      <point x="-125" y="-520" type="curve" smooth="yes"/>
      <point x="-317" y="-520"/>
      <point x="-415" y="-396"/>
      <point x="-415" y="-292" type="curve" smooth="yes"/>
      <point x="-415" y="-190"/>
      <point x="-352" y="-128"/>
      <point x="-262" y="-128" type="curve" smooth="yes"/>
      <point x="-182" y="-128"/>
      <point x="-99" y="-176"/>
      <point x="-99" y="-276" type="curve" smooth="yes"/>
      <point x="-99" y="-376"/>
      <point x="-172" y="-431"/>
      <point x="-260" y="-431" type="curve" smooth="yes"/>
      <point x="-323" y="-431"/>
      <point x="-376" y="-395"/>
      <point x="-395" y="-348" type="curve"/>
      <point x="-375" y="-425"/>
      <point x="-279" y="-512"/>
      <point x="-148" y="-512" type="curve" smooth="yes"/>
      <point x="-8" y="-512"/>
      <point x="84" y="-324"/>
      <point x="127" y="-80" type="curve" smooth="yes"/>
      <point x="324" y="1024" type="line" smooth="yes"/>
      <point x="381" y="1344"/>
      <point x="620" y="1520"/>
      <point x="920" y="1520" type="curve" smooth="yes"/>
      <point x="1140" y="1520"/>
      <point x="1240" y="1406"/>
      <point x="1240" y="1292" type="curve" smooth="yes"/>
      <point x="1240" y="1190"/>
      <point x="1177" y="1128"/>
      <point x="1087" y="1128" type="curve" smooth="yes"/>
      <point x="1007" y="1128"/>
      <point x="924" y="1176"/>
      <point x="924" y="1276" type="curve" smooth="yes"/>
      <point x="924" y="1376"/>
      <point x="997" y="1431"/>
      <point x="1085" y="1431" type="curve" smooth="yes"/>
      <point x="1148" y="1431"/>
      <point x="1203" y="1395"/>
    </contour>
  </outline>
</glyph>
<glyph name="uniFB02" format="2">
  <advance width="2985"/>
  <unicode hex="FB02"/>
  <outline>
    <contour>
      <point x="2904" y="668" type="line"/>
      <point x="2748" y="258"/>
      <point x="2465" y="-40"/>
      <point x="2072" y="-40" type="curve" smooth="yes"/>
      <point x="1818" y="-40"/>
      <point x="1690" y="54"/>
      <point x="1690" y="299" type="curve" smooth="yes"/>
      <point x="1690" y="319"/>
      <point x="1694" y="365"/>
      <point x="1698" y="389" type="curve" smooth="yes"/>
      <point x="2294" y="2990" type="line"/>
      <point x="2904" y="3154" type="line"/>
      <point x="2218" y="193" type="line" smooth="yes"/>
      <point x="2214" y="169"/>
      <point x="2209" y="139"/>
      <point x="2209" y="119" type="curve" smooth="yes"/>
      <point x="2209" y="73"/>
      <point x="2229" y="31"/>
      <point x="2283" y="31" type="curve" smooth="yes"/>
      <point x="2496" y="31"/>
      <point x="2758" y="304"/>
      <point x="2896" y="672" type="curve"/>
    </contour>
    <contour>
      <point x="282" y="1884" type="line"/>
      <point x="1778" y="1884" type="line"/>
      <point x="1778" y="1872" type="line"/>
      <point x="282" y="1872" type="line"/>
    </contour>
    <contour>
      <point x="2478" y="2646" type="curve" smooth="yes"/>
      <point x="2478" y="2437"/>
      <point x="2349" y="2310"/>
      <point x="2165" y="2310" type="curve" smooth="yes"/>
      <point x="2001" y="2310"/>
      <point x="1831" y="2408"/>
      <point x="1831" y="2613" type="curve" smooth="yes"/>
      <point x="1831" y="2818"/>
      <point x="1981" y="2931"/>
      <point x="2161" y="2931" type="curve" smooth="yes"/>
      <point x="2290" y="2931"/>
      <point x="2398" y="2856"/>
      <point x="2439" y="2760" type="curve"/>
      <point x="2398" y="2918"/>
      <point x="2220" y="3096"/>
      <point x="1931" y="3096" type="curve" smooth="yes"/>
      <point x="1585" y="3096"/>
      <point x="1334" y="2712"/>
      <point x="1246" y="2212" type="curve" smooth="yes"/>
      <point x="842" y="-50" type="line" smooth="yes"/>
      <point x="725" y="-705"/>
      <point x="276" y="-1064"/>
      <point x="-256" y="-1064" type="curve" smooth="yes"/>
      <point x="-649" y="-1064"/>
      <point x="-850" y="-811"/>
      <point x="-850" y="-598" type="curve" smooth="yes"/>
      <point x="-850" y="-389"/>
      <point x="-720" y="-262"/>
      <point x="-536" y="-262" type="curve" smooth="yes"/>
      <point x="-372" y="-262"/>
      <point x="-203" y="-360"/>
      <point x="-203" y="-565" type="curve" smooth="yes"/>
      <point x="-203" y="-770"/>
      <point x="-353" y="-883"/>
      <point x="-533" y="-883" type="curve" smooth="yes"/>
      <point x="-662" y="-883"/>
      <point x="-770" y="-808"/>
      <point x="-809" y="-712" type="curve"/>
      <point x="-768" y="-870"/>
      <point x="-571" y="-1048"/>
      <point x="-303" y="-1048" type="curve" smooth="yes"/>
      <point x="-17" y="-1048"/>
      <point x="172" y="-664"/>
      <point x="260" y="-164" type="curve" smooth="yes"/>
      <point x="664" y="2098" type="line" smooth="yes"/>
      <point x="781" y="2753"/>
      <point x="1290" y="3112"/>
      <point x="1884" y="3112" type="curve" smooth="yes"/>
      <point x="2281" y="3112"/>
      <point x="2478" y="2873"/>
    </contour>
  </outline>
</glyph>
<glyph name="uniFB03" format="2">
  <advance width="1996"/>
  <unicode hex="FB03"/>
  <outline>
    <contour>
      <point x="1957" y="326" type="line"/>
      <point x="1881" y="126"/>
      <point x="1743" y="-20"/>
      <point x="1551" y="-20" type="curve" smooth="yes"/>
      <point x="1427" y="-20"/>
      <point x="1364" y="26"/>
      <point x="1364" y="146" type="curve" smooth="yes"/>
      <point x="1364" y="156"/>
      <point x="1365" y="178"/>
      <point x="1368" y="190" type="curve" smooth="yes"/>
      <point x="1542" y="914" type="line"/>
      <point x="138" y="914" type="line"/>
      <point x="138" y="920" type="line"/>
      <point x="1823" y="920" type="line"/>
      <point x="1622" y="94" type="line" smooth="yes"/>
      <point x="1620" y="82"/>
      <point x="1618" y="68"/>
      <point x="1618" y="58" type="curve" smooth="yes"/>
      <point x="1618" y="36"/>
      <point x="1628" y="15"/>
      <point x="1654" y="15" type="curve" smooth="yes"/>
      <point x="1759" y="15"/>
      <point x="1884" y="142"/>
      <point x="1953" y="328" type="curve"/>
    </contour>
    <contour>
      <point x="1860" y="1292" type="curve" smooth="yes"/>
      <point x="1860" y="1190"/>
      <point x="1797" y="1128"/>
      <point x="1707" y="1128" type="curve" smooth="yes"/>
      <point x="1627" y="1128"/>
      <point x="1544" y="1176"/>
      <point x="1544" y="1276" type="curve" smooth="yes"/>
      <point x="1544" y="1376"/>
      <point x="1617" y="1431"/>
      <point x="1705" y="1431" type="curve" smooth="yes"/>
      <point x="1768" y="1431"/>
      <point x="1823" y="1395"/>
      <point x="1843" y="1348" type="curve"/>
      <point x="1818" y="1436"/>
      <point x="1714" y="1512"/>
      <point x="1563" y="1512" type="curve" smooth="yes"/>
      <point x="1383" y="1512"/>
      <point x="1273" y="1333"/>
      <point x="1228" y="1080" type="curve" smooth="yes"/>
      <point x="1051" y="76" type="line" smooth="yes"/>
      <point x="994" y="-244"/>
      <point x="775" y="-420"/>
      <point x="505" y="-420" type="curve" smooth="yes"/>
      <point x="303" y="-420"/>
      <point x="206" y="-296"/>
      <point x="206" y="-192" type="curve" smooth="yes"/>
      <point x="206" y="-90"/>
      <point x="269" y="-28"/>
      <point x="359" y="-28" type="curve" smooth="yes"/>
      <point x="439" y="-28"/>
      <point x="522" y="-76"/>
      <point x="522" y="-176" type="curve" smooth="yes"/>
      <point x="522" y="-276"/>
      <point x="449" y="-331"/>
      <point x="361" y="-331" type="curve" smooth="yes"/>
      <point x="298" y="-331"/>
      <point x="245" y="-295"/>
      <point x="226" y="-248" type="curve"/>
      <point x="246" y="-325"/>
      <point x="342" y="-412"/>
      <point x="483" y="-412" type="curve" smooth="yes"/>
      <point x="633" y="-412"/>
      <point x="725" y="-224"/>
      <point x="768" y="20" type="curve" smooth="yes"/>
      <point x="944" y="1024" type="line" smooth="yes"/>
      <point x="1001" y="1344"/>
      <point x="1240" y="1520"/>
      <point x="1540" y="1520" type="curve" smooth="yes"/>
      <point x="1753" y="1520"/>
      <point x="1860" y="1411"/>
    </contour>
    <contour>
      <point x="1131" y="1248" type="curve"/>
      <point x="1111" y="1325"/>
      <point x="1014" y="1412"/>
      <point x="873" y="1412" type="curve" smooth="yes"/>
      <point x="723" y="1412"/>
      <point x="631" y="1226"/>
      <point x="588" y="982" type="curve" smooth="yes"/>
      <point x="411" y="-24" type="line" smooth="yes"/>
      <point x="354" y="-344"/>
      <point x="135" y="-520"/>
      <point x="-125" y="-520" type="curve" smooth="yes"/>
      <point x="-317" y="-520"/>
      <point x="-415" y="-396"/>
      <point x="-415" y="-292" type="curve" smooth="yes"/>
      <point x="-415" y="-190"/>
      <point x="-352" y="-128"/>
      <point x="-262" y="-128" type="curve" smooth="yes"/>
      <point x="-182" y="-128"/>
      <point x="-99" y="-176"/>
      <point x="-99" y="-276" type="curve" smooth="yes"/>
      <point x="-99" y="-376"/>
      <point x="-172" y="-431"/>
      <point x="-260" y="-431" type="curve" smooth="yes"/>
      <point x="-323" y="-431"/>
      <point x="-376" y="-395"/>
      <point x="-395" y="-348" type="curve"/>
      <point x="-375" y="-425"/>
      <point x="-279" y="-512"/>
      <point x="-148" y="-512" type="curve" smooth="yes"/>
      <point x="-8" y="-512"/>
      <point x="84" y="-324"/>
      <point x="127" y="-80" type="curve" smooth="yes"/>
      <point x="304" y="924" type="line" smooth="yes"/>
      <point x="361" y="1244"/>
      <point x="580" y="1420"/>
      <point x="850" y="1420" type="curve" smooth="yes"/>
      <point x="1052" y="1420"/>
      <point x="1150" y="1296"/>
      <point x="1150" y="1192" type="curve" smooth="yes"/>
      <point x="1150" y="1090"/>
      <point x="1087" y="1028"/>
      <point x="997" y="1028" type="curve" smooth="yes"/>
      <point x="917" y="1028"/>
      <point x="834" y="1076"/>
      <point x="834" y="1176" type="curve" smooth="yes"/>
      <point x="834" y="1276"/>
      <point x="907" y="1331"/>
      <point x="995" y="1331" type="curve" smooth="yes"/>
      <point x="1058" y="1331"/>
      <point x="1111" y="1295"/>
    </contour>
  </outline>
</glyph>
<glyph name="uniFB04" format="2">
  <advance width="4255"/>
  <unicode hex="FB04"/>
  <outline>
    <contour>
      <point x="4174" y="668" type="line"/>
      <point x="4018" y="258"/>
      <point x="3736" y="-40"/>
      <point x="3343" y="-40" type="curve" smooth="yes"/>
      <point x="3089" y="-40"/>
      <point x="2959" y="54"/>
      <point x="2959" y="299" type="curve" smooth="yes"/>
      <point x="2959" y="319"/>
      <point x="2963" y="365"/>
      <point x="2967" y="389" type="curve" smooth="yes"/>
      <point x="3563" y="2990" type="line"/>
      <point x="4174" y="3154" type="line"/>
      <point x="3488" y="193" type="line" smooth="yes"/>
      <point x="3484" y="169"/>
      <point x="3480" y="139"/>
      <point x="3480" y="119" type="curve" smooth="yes"/>
      <point x="3480" y="73"/>
      <point x="3500" y="31"/>
      <point x="3554" y="31" type="curve" smooth="yes"/>
      <point x="3767" y="31"/>
      <point x="4028" y="304"/>
      <point x="4166" y="672" type="curve"/>
    </contour>
    <contour>
      <point x="282" y="1884" type="line"/>
      <point x="3047" y="1884" type="line"/>
      <point x="3047" y="1872" type="line"/>
      <point x="282" y="1872" type="line"/>
    </contour>
    <contour>
      <point x="3708" y="2760" type="curve"/>
      <point x="3667" y="2918"/>
      <point x="3490" y="3096"/>
      <point x="3201" y="3096" type="curve" smooth="yes"/>
      <point x="2855" y="3096"/>
      <point x="2603" y="2712"/>
      <point x="2515" y="2212" type="curve" smooth="yes"/>
      <point x="2153" y="156" type="line" smooth="yes"/>
      <point x="2036" y="-499"/>
      <point x="1597" y="-860"/>
      <point x="1044" y="-860" type="curve" smooth="yes"/>
      <point x="631" y="-860"/>
      <point x="430" y="-606"/>
      <point x="430" y="-393" type="curve" smooth="yes"/>
      <point x="430" y="-184"/>
      <point x="560" y="-57"/>
      <point x="744" y="-57" type="curve" smooth="yes"/>
      <point x="908" y="-57"/>
      <point x="1078" y="-156"/>
      <point x="1078" y="-361" type="curve" smooth="yes"/>
      <point x="1078" y="-566"/>
      <point x="928" y="-678"/>
      <point x="748" y="-678" type="curve" smooth="yes"/>
      <point x="619" y="-678"/>
      <point x="508" y="-604"/>
      <point x="469" y="-508" type="curve"/>
      <point x="510" y="-666"/>
      <point x="708" y="-844"/>
      <point x="997" y="-844" type="curve" smooth="yes"/>
      <point x="1304" y="-844"/>
      <point x="1493" y="-460"/>
      <point x="1581" y="40" type="curve" smooth="yes"/>
      <point x="1933" y="2098" type="line" smooth="yes"/>
      <point x="2050" y="2753"/>
      <point x="2560" y="3112"/>
      <point x="3154" y="3112" type="curve" smooth="yes"/>
      <point x="3567" y="3112"/>
      <point x="3748" y="2859"/>
      <point x="3748" y="2646" type="curve" smooth="yes"/>
      <point x="3748" y="2437"/>
      <point x="3619" y="2310"/>
      <point x="3435" y="2310" type="curve" smooth="yes"/>
      <point x="3271" y="2310"/>
      <point x="3100" y="2408"/>
      <point x="3100" y="2613" type="curve" smooth="yes"/>
      <point x="3100" y="2818"/>
      <point x="3250" y="2931"/>
      <point x="3430" y="2931" type="curve" smooth="yes"/>
      <point x="3559" y="2931"/>
      <point x="3667" y="2856"/>
    </contour>
    <contour>
      <point x="2316" y="2556" type="curve"/>
      <point x="2275" y="2714"/>
      <point x="2077" y="2892"/>
      <point x="1788" y="2892" type="curve" smooth="yes"/>
      <point x="1481" y="2892"/>
      <point x="1292" y="2512"/>
      <point x="1204" y="2012" type="curve" smooth="yes"/>
      <point x="842" y="-50" type="line" smooth="yes"/>
      <point x="725" y="-705"/>
      <point x="276" y="-1064"/>
      <point x="-256" y="-1064" type="curve" smooth="yes"/>
      <point x="-649" y="-1064"/>
      <point x="-850" y="-811"/>
      <point x="-850" y="-598" type="curve" smooth="yes"/>
      <point x="-850" y="-389"/>
      <point x="-720" y="-262"/>
      <point x="-536" y="-262" type="curve" smooth="yes"/>
      <point x="-372" y="-262"/>
      <point x="-203" y="-360"/>
      <point x="-203" y="-565" type="curve" smooth="yes"/>
      <point x="-203" y="-770"/>
      <point x="-353" y="-883"/>
      <point x="-533" y="-883" type="curve" smooth="yes"/>
      <point x="-662" y="-883"/>
      <point x="-770" y="-808"/>
      <point x="-809" y="-712" type="curve"/>
      <point x="-768" y="-870"/>
      <point x="-571" y="-1048"/>
      <point x="-303" y="-1048" type="curve" smooth="yes"/>
      <point x="-17" y="-1048"/>
      <point x="172" y="-664"/>
      <point x="260" y="-164" type="curve" smooth="yes"/>
      <point x="622" y="1892" type="line" smooth="yes"/>
      <point x="739" y="2547"/>
      <point x="1187" y="2908"/>
      <point x="1740" y="2908" type="curve" smooth="yes"/>
      <point x="2153" y="2908"/>
      <point x="2355" y="2654"/>
      <point x="2355" y="2441" type="curve" smooth="yes"/>
      <point x="2355" y="2232"/>
      <point x="2226" y="2105"/>
      <point x="2042" y="2105" type="curve" smooth="yes"/>
      <point x="1878" y="2105"/>
      <point x="1708" y="2204"/>
      <point x="1708" y="2409" type="curve" smooth="yes"/>
      <point x="1708" y="2614"/>
      <point x="1858" y="2726"/>
      <point x="2038" y="2726" type="curve" smooth="yes"/>
      <point x="2167" y="2726"/>
      <point x="2275" y="2652"/>
    </contour>
  </outline>
</glyph>
<glyph name="J.alt" format="2">
  <advance width="1256"/>
  <outline>
    <contour>
      <point x="732" y="1500" type="line"/>
      <point x="1487" y="1500" type="line"/>
      <point x="1487" y="1494" type="line"/>
      <point x="732" y="1494" type="line"/>
    </contour>
    <contour>
      <point x="972" y="1500" type="line"/>
      <point x="1287" y="1500" type="line"/>
      <point x="1067" y="560" type="line" smooth="yes"/>
      <point x="995" y="256"/>
      <point x="684" y="-20"/>
      <point x="362" y="-20" type="curve" smooth="yes"/>
      <point x="148" y="-20"/>
      <point x="10" y="129"/>
      <point x="10" y="319" type="curve" smooth="yes"/>
      <point x="10" y="483"/>
      <point x="104" y="580"/>
      <point x="224" y="580" type="curve" smooth="yes"/>
      <point x="334" y="580"/>
      <point x="416" y="514"/>
      <point x="416" y="392" type="curve" smooth="yes"/>
      <point x="416" y="292"/>
      <point x="332" y="206"/>
      <point x="214" y="206" type="curve" smooth="yes"/>
      <point x="111" y="206"/>
      <point x="38" y="281"/>
      <point x="20" y="333" type="curve"/>
      <point x="9" y="137"/>
      <point x="156" y="-14"/>
      <point x="362" y="-14" type="curve" smooth="yes"/>
      <point x="604" y="-14"/>
      <point x="694" y="232"/>
      <point x="752" y="500" type="curve" smooth="yes"/>
    </contour>
  </outline>
</glyph>
<glyph name="R.alt" format="2">
  <advance width="3071"/>
  <outline>
    <contour>
      <point x="2755" y="0" type="line"/>
      <point x="2689" y="0"/>
      <point x="2534" y="0"/>
      <point x="2386" y="0" type="curve" smooth="yes"/>
      <point x="1267" y="0"/>
      <point x="2410" y="1572"/>
      <point x="1444" y="1572" type="curve" smooth="yes"/>
      <point x="1095" y="1572" type="line"/>
      <point x="1095" y="1582" type="line"/>
      <point x="1628" y="1582" type="line" smooth="yes"/>
      <point x="3095" y="1582"/>
      <point x="2149" y="12"/>
      <point x="2652" y="12" type="curve" smooth="yes"/>
      <point x="2698" y="12"/>
      <point x="2755" y="12"/>
      <point x="2755" y="12" type="curve"/>
    </contour>
    <contour>
      <point x="952" y="3072" type="line"/>
      <point x="1587" y="3072" type="line"/>
      <point x="870" y="0" type="line"/>
      <point x="236" y="0" type="line"/>
    </contour>
    <contour>
      <point x="-154" y="12" type="line"/>
      <point x="1321" y="12" type="line"/>
      <point x="1321" y="0" type="line"/>
      <point x="-154" y="0" type="line"/>
    </contour>
    <contour>
      <point x="1628" y="1572" type="curve" smooth="yes"/>
      <point x="1095" y="1572" type="line"/>
      <point x="1095" y="1582" type="line"/>
      <point x="1525" y="1582" type="line" smooth="yes"/>
      <point x="2103" y="1582"/>
      <point x="2314" y="2195"/>
      <point x="2314" y="2560" type="curve" smooth="yes"/>
      <point x="2314" y="2760"/>
      <point x="2247" y="3060"/>
      <point x="1894" y="3060" type="curve" smooth="yes"/>
      <point x="522" y="3060" type="line"/>
      <point x="522" y="3072" type="line"/>
      <point x="2038" y="3072" type="line" smooth="yes"/>
      <point x="2574" y="3072"/>
      <point x="2979" y="2908"/>
      <point x="2979" y="2458" type="curve" smooth="yes"/>
      <point x="2979" y="1884"/>
      <point x="2452" y="1572"/>
    </contour>
  </outline>
</glyph>
<glyph name="fj.lig" format="2">
  <advance width="1315"/>
  <outline>
    <contour>
      <point x="754" y="80" type="curve" smooth="yes"/>
      <point x="928" y="913" type="line"/>
      <point x="138" y="914" type="line"/>
      <point x="138" y="920" type="line"/>
      <point x="1206" y="920" type="line"/>
      <point x="1041" y="76" type="line" smooth="yes"/>
      <point x="992" y="-175"/>
      <point x="766" y="-420"/>
      <point x="496" y="-420" type="curve" smooth="yes"/>
      <point x="314" y="-420"/>
      <point x="200" y="-306"/>
      <point x="200" y="-197" type="curve" smooth="yes"/>
      <point x="200" y="-95"/>
      <point x="279" y="-28"/>
      <point x="369" y="-28" type="curve" smooth="yes"/>
      <point x="449" y="-28"/>
      <point x="526" y="-83"/>
      <point x="526" y="-170" type="curve" smooth="yes"/>
      <point x="526" y="-267"/>
      <point x="446" y="-329"/>
      <point x="363" y="-329" type="curve" smooth="yes"/>
      <point x="293" y="-329"/>
      <point x="232" y="-288"/>
      <point x="222" y="-247" type="curve"/>
      <point x="247" y="-336"/>
      <point x="349" y="-413"/>
      <point x="491" y="-413" type="curve" smooth="yes"/>
      <point x="671" y="-413"/>
      <point x="703" y="-161"/>
    </contour>
    <contour>
      <point x="1227" y="1339" type="curve"/>
      <point x="1205" y="1432"/>
      <point x="1105" y="1512"/>
      <point x="943" y="1512" type="curve" smooth="yes"/>
      <point x="773" y="1512"/>
      <point x="651" y="1324"/>
      <point x="608" y="1080" type="curve" smooth="yes"/>
      <point x="411" y="-24" type="line" smooth="yes"/>
      <point x="354" y="-343"/>
      <point x="140" y="-520"/>
      <point x="-120" y="-520" type="curve" smooth="yes"/>
      <point x="-312" y="-520"/>
      <point x="-410" y="-396"/>
      <point x="-410" y="-292" type="curve" smooth="yes"/>
      <point x="-410" y="-190"/>
      <point x="-347" y="-128"/>
      <point x="-257" y="-128" type="curve" smooth="yes"/>
      <point x="-177" y="-128"/>
      <point x="-94" y="-176"/>
      <point x="-94" y="-276" type="curve" smooth="yes"/>
      <point x="-94" y="-376"/>
      <point x="-172" y="-431"/>
      <point x="-260" y="-431" type="curve" smooth="yes"/>
      <point x="-337" y="-431"/>
      <point x="-384" y="-368"/>
      <point x="-395" y="-339" type="curve"/>
      <point x="-379" y="-413"/>
      <point x="-289" y="-510"/>
      <point x="-143" y="-510" type="curve" smooth="yes"/>
      <point x="-3" y="-510"/>
      <point x="90" y="-324"/>
      <point x="132" y="-80" type="curve" smooth="yes"/>
      <point x="324" y="1024" type="line" smooth="yes"/>
      <point x="380" y="1344"/>
      <point x="620" y="1520"/>
      <point x="920" y="1520" type="curve" smooth="yes"/>
      <point x="1152" y="1520"/>
      <point x="1240" y="1396"/>
      <point x="1240" y="1292" type="curve" smooth="yes"/>
      <point x="1240" y="1190"/>
      <point x="1177" y="1128"/>
      <point x="1087" y="1128" type="curve" smooth="yes"/>
      <point x="1007" y="1128"/>
      <point x="924" y="1176"/>
      <point x="924" y="1276" type="curve" smooth="yes"/>
      <point x="924" y="1376"/>
      <point x="1002" y="1431"/>
      <point x="1090" y="1431" type="curve" smooth="yes"/>
      <point x="1164" y="1431"/>
      <point x="1208" y="1377"/>
    </contour>
  </outline>
</glyph>
<glyph name="four.alt" format="2">
  <advance width="2682"/>
  <outline>
    <contour>
      <point x="2376" y="2040" type="curve"/>
      <point x="1921" y="-4" type="line"/>
      <point x="1286" y="-4" type="line"/>
      <point x="1700" y="1856" type="line"/>
      <point x="1904" y="1856"/>
      <point x="2233" y="1959"/>
    </contour>
    <contour>
      <point x="2261" y="12" type="line"/>
      <point x="2261" y="0" type="line"/>
      <point x="930" y="0" type="line"/>
      <point x="930" y="12" type="line"/>
    </contour>
    <contour>
      <point x="86" y="802" type="curve"/>
      <point x="2478" y="802" type="line"/>
      <point x="2478" y="794" type="line"/>
      <point x="62" y="794" type="line"/>
      <point x="697" y="1614"/>
      <point x="1742" y="2437"/>
      <point x="1885" y="3072" type="curve"/>
      <point x="2572" y="3072" type="line"/>
      <point x="2474" y="2396"/>
      <point x="680" y="1535"/>
    </contour>
  </outline>
</glyph>
<glyph name="v.alt" format="2">
  <advance width="2174"/>
  <outline>
    <contour>
      <point x="881" y="1946" type="curve"/>
      <point x="885" y="1938" type="line"/>
      <point x="717" y="1844"/>
      <point x="676" y="1730"/>
      <point x="676" y="1587" type="curve" smooth="yes"/>
      <point x="676" y="1229"/>
      <point x="1122" y="1060"/>
      <point x="1122" y="552" type="curve" smooth="yes"/>
      <point x="1122" y="482"/>
      <point x="1102" y="258"/>
      <point x="1094" y="164" type="curve"/>
      <point x="1731" y="502"/>
      <point x="2143" y="870"/>
      <point x="2143" y="1410" type="curve" smooth="yes"/>
      <point x="2143" y="1469"/>
      <point x="2134" y="1546"/>
      <point x="2114" y="1575" type="curve"/>
      <point x="2096" y="1446"/>
      <point x="1989" y="1249"/>
      <point x="1733" y="1249" type="curve" smooth="yes"/>
      <point x="1508" y="1249"/>
      <point x="1380" y="1421"/>
      <point x="1380" y="1585" type="curve" smooth="yes"/>
      <point x="1380" y="1769"/>
      <point x="1520" y="1922"/>
      <point x="1733" y="1922" type="curve" smooth="yes"/>
      <point x="2052" y="1922"/>
      <point x="2155" y="1660"/>
      <point x="2155" y="1410" type="curve" smooth="yes"/>
      <point x="2155" y="718"/>
      <point x="1501" y="340"/>
      <point x="703" y="-50" type="curve"/>
      <point x="506" y="-10" type="line"/>
      <point x="514" y="80"/>
      <point x="545" y="352"/>
      <point x="545" y="434" type="curve" smooth="yes"/>
      <point x="545" y="750"/>
      <point x="122" y="1020"/>
      <point x="122" y="1324" type="curve" smooth="yes"/>
      <point x="122" y="1652"/>
      <point x="513" y="1827"/>
    </contour>
  </outline>
</glyph>
